0
SECTION
2
HEADER
9
$INSUNITS
70
4
9
$ACADVER
1
AC1014
9
$HANDSEED
5
FFFF
0
ENDSEC
0
SECTION
2
TABLES
0
TABLE
2
VPORT
5
8
100
AcDbSymbolTable
0
ENDTAB
0
TABLE
2
LTYPE
5
5
100
AcDbSymbolTable
0
LTYPE
5
14
100
AcDbSymbolTableRecord
100
AcDbLinetypeTableRecord
2
BYBLOCK
70
0
0
LTYPE
5
15
100
AcDbSymbolTableRecord
100
AcDbLinetypeTableRecord
2
BYLAYER
70
0
0
ENDTAB
0
TABLE
2
LAYER
5
2
100
AcDbSymbolTable
70
2
0
LAYER
5
50
100
AcDbSymbolTableRecord
100
AcDbLayerTableRecord
2
0
70
0
6
CONTINUOUS
0
ENDTAB
0
TABLE
2
STYLE
5
3
100
AcDbSymbolTable
70
1
0
STYLE
5
11
100
AcDbSymbolTableRecord
100
AcDbTextStyleTableRecord
2
STANDARD
70
0
0
ENDTAB
0
TABLE
2
VIEW
5
6
100
AcDbSymbolTable
70
0
0
ENDTAB
0
TABLE
2
UCS
5
7
100
AcDbSymbolTable
70
0
0
ENDTAB
0
TABLE
2
APPID
5
9
100
AcDbSymbolTable
70
2
0
APPID
5
12
100
AcDbSymbolTableRecord
100
AcDbRegAppTableRecord
2
ACAD
70
0
0
ENDTAB
0
TABLE
2
DIMSTYLE
5
A
100
AcDbSymbolTable
70
1
0
ENDTAB
0
TABLE
2
BLOCK_RECORD
5
1
100
AcDbSymbolTable
70
1
0
BLOCK_RECORD
5
1F
100
AcDbSymbolTableRecord
100
AcDbBlockTableRecord
2
*MODEL_SPACE
0
BLOCK_RECORD
5
1B
100
AcDbSymbolTableRecord
100
AcDbBlockTableRecord
2
*PAPER_SPACE
0
ENDTAB
0
ENDSEC
0
SECTION
2
BLOCKS
0
BLOCK
5
20
100
AcDbEntity
100
AcDbBlockBegin
2
*MODEL_SPACE
0
ENDBLK
5
21
100
AcDbEntity
100
AcDbBlockEnd
0
BLOCK
5
1C
100
AcDbEntity
100
AcDbBlockBegin
2
*PAPER_SPACE
0
ENDBLK
5
1D
100
AcDbEntity
100
AcDbBlockEnd
0
ENDSEC
0
SECTION
2
ENTITIES
0
LWPOLYLINE
5
100
100
AcDbEntity
8
0
100
AcDbPolyline
90
8
70
1
43
0.0
10
-70.999999999994827
20
304.03844620197094
10
-60.999999999994934
20
304.03844620196986
42
-0.41421356237308959
10
-50.999999999996
20
294.03844620196861
10
-50.999999999997115
20
284.03844620196872
42
-0.41421356237309398
10
-60.999999999998295
20
274.03844620196986
10
-70.999999999998252
20
274.03844620197094
42
-0.41421356237309814
10
-80.999999999997087
20
284.03844620197208
10
-80.999999999995964
20
294.03844620197208
42
-0.41421356237309503
0
LWPOLYLINE
5
101
100
AcDbEntity
8
0
100
AcDbPolyline
90
6
70
1
43
0.0
10
-78.352885291523322
20
176.48385482282953
10
-48.711869140144756
20
176.48385482282802
42
-0.76732698797895771
10
-46.211869140145225
20
167.15372780390592
10
-80.852885291524728
20
147.15372780390743
42
-0.57735026918961962
10
-88.35288529152443
20
151.48385482282998
10
-88.352885291523791
20
166.48385482282976
42
-0.41421356237310231
0
LWPOLYLINE
5
102
100
AcDbEntity
8
0
100
AcDbPolyline
90
8
70
1
43
0.0
10
-183.62300000001034
20
304.03844620197265
42
0.4142135623730846
10
-193.62300000000971
20
294.03844620197185
10
-193.62300000000909
20
284.03844620197196
42
0.41421356237309398
10
-183.62300000000835
20
274.03844620197265
10
-173.6230000000084
20
274.03844620197327
42
0.41421356237309814
10
-163.62300000000911
20
284.03844620197395
10
-163.62300000000977
20
294.03844620197395
42
0.41421356237309503
10
-173.62300000001045
20
304.03844620197327
0
LWPOLYLINE
5
103
100
AcDbEntity
8
0
100
AcDbPolyline
90
6
70
1
43
0.0
10
-163.77011470848768
20
147.15372780390931
10
-198.41113085986626
20
167.15372780390913
42
-0.76732698797896759
10
-195.91113085986632
20
176.48385482283152
10
-166.27011470848774
20
176.48385482283157
42
-0.41421356237309398
10
-156.27011470848774
20
166.48385482283152
10
-156.27011470848774
20
151.48385482283152
42
-0.57735026918961951
0
LWPOLYLINE
5
104
100
AcDbEntity
8
0
100
AcDbPolyline
90
212
70
1
43
0.0
10
-203.12299991923382
20
326.53844603420293
10
-203.12299991923382
20
326.03844603420299
10
-204.12299991923379
20
326.03844603420299
10
-204.12299991923379
20
329.03844603420293
10
-205.56233991923381
20
329.03844603420293
10
-208.12299991923382
20
326.47778603420295
10
-208.12299991923382
20
323.90447103420291
10
-208.62299991923382
20
323.03844603420293
10
-208.12299991923382
20
322.17242103420296
10
-208.12299991923382
20
319.59910603420298
10
-205.56233991923381
20
317.03844603420293
10
-204.12299991923379
20
317.03844603420293
10
-204.12299991923379
20
320.03844603420293
10
-203.12299991923382
20
320.03844603420293
10
-203.12299991923382
20
319.53844603420293
10
-202.62299991923382
20
319.53844603420293
10
-202.62299991923382
20
314.53844603420299
10
-202.62451091923381
20
314.47114903420299
10
-202.62903891923384
20
314.40398703420294
10
-202.63657591923379
20
314.337096034203
10
-202.64710591923381
20
314.27061003420295
10
-202.6606079192338
20
314.20466503420289
10
-202.67705591923379
20
314.1393910342029
10
-202.6964149192338
20
314.07492003420293
10
-202.7186479192338
20
314.01138403420293
10
-202.74370791923383
20
313.94890803420299
10
-202.77154691923383
20
313.887620034203
10
-202.80210691923384
20
313.82764303420294
10
-202.83532691923381
20
313.76909703420296
10
-202.8711399192338
20
313.71210103420299
10
-202.90947391923382
20
313.65676803420291
10
-202.95025191923384
20
313.6032110342029
10
-202.99339291923383
20
313.55153803420296
10
-203.03880791923379
20
313.50185203420295
10
-203.08640591923381
20
313.4542540342029
10
-203.13609191923379
20
313.40883903420291
10
-203.18776491923381
20
313.36569803420298
10
-203.24132191923383
20
313.32492003420299
10
-203.29665491923382
20
313.28658603420297
10
-203.35365091923381
20
313.25077303420295
10
-203.41219691923382
20
313.21755303420298
10
-203.4721739192338
20
313.18699303420294
10
-203.53346191923382
20
313.15915403420291
10
-203.59593791923379
20
313.13409403420297
10
-203.65947391923382
20
313.11186103420289
10
-203.72394491923382
20
313.09250203420288
10
-203.7892189192338
20
313.07605403420291
10
-203.8551639192338
20
313.06255203420289
10
-203.9216499192338
20
313.05202203420299
10
-203.98854091923383
20
313.04448503420298
10
-204.05570291923382
20
313.03995703420293
10
-204.12299991923379
20
313.03844603420293
10
-209.12299991923379
20
313.03844603420293
10
-209.12299991923379
20
313.53844603420299
10
-209.62299991923379
20
313.53844603420299
10
-209.62299991923379
20
314.53844603420299
10
-206.62299991923379
20
314.53844603420293
10
-206.62299991923379
20
315.97778603420295
10
-209.1836599192338
20
318.53844603420299
10
-211.75697491923381
20
318.53844603420299
10
-212.62299991923382
20
319.03844603420299
10
-213.48902491923383
20
318.53844603420299
10
-216.06233991923381
20
318.53844603420293
10
-218.62299991923382
20
315.97778603420295
10
-218.62299991923382
20
314.53844603420293
10
-215.62299991923382
20
314.53844603420299
10
-215.62299991923382
20
313.53844603420299
10
-216.12299991923382
20
313.53844603420293
10
-216.12299991923382
20
313.03844603420293
10
-221.12299991923382
20
313.03844603420293
10
-221.19029691923379
20
313.03995703420298
10
-221.25745891923378
20
313.04448503420298
10
-221.32434991923384
20
313.05202203420293
10
-221.39083591923381
20
313.06255203420289
10
-221.45678091923384
20
313.07605403420297
10
-221.52205491923382
20
313.09250203420299
10
-221.58652591923382
20
313.11186103420289
10
-221.65006191923382
20
313.13409403420297
10
-221.7125379192338
20
313.15915403420297
10
-221.77382591923379
20
313.18699303420294
10
-221.83380291923382
20
313.21755303420298
10
-221.8923489192338
20
313.25077303420295
10
-221.94934491923379
20
313.28658603420297
10
-222.00467791923381
20
313.32492003420299
10
-222.05823491923383
20
313.36569803420298
10
-222.10990791923382
20
313.40883903420291
10
-222.1595939192338
20
313.4542540342029
10
-222.20719191923382
20
313.50185203420295
10
-222.25260691923381
20
313.55153803420296
10
-222.2957479192338
20
313.60321103420296
10
-222.33652591923379
20
313.65676803420291
10
-222.37485991923381
20
313.71210103420299
10
-222.41067291923383
20
313.76909703420296
10
-222.4438929192338
20
313.82764303420294
10
-222.47445291923381
20
313.887620034203
10
-222.50229191923381
20
313.94890803420299
10
-222.52735191923381
20
314.01138403420293
10
-222.54958491923384
20
314.07492003420293
10
-222.56894391923382
20
314.13939103420296
10
-222.58539191923379
20
314.20466503420295
10
-222.5988939192338
20
314.27061003420295
10
-222.60942391923382
20
314.337096034203
10
-222.6169609192338
20
314.40398703420294
10
-222.6214889192338
20
314.47114903420299
10
-222.62299991923382
20
314.53844603420293
10
-222.62299991923382
20
319.53844603420293
10
-222.12299991923379
20
319.53844603420293
10
-222.12299991923379
20
320.03844603420293
10
-221.12299991923382
20
320.03844603420293
10
-221.12299991923382
20
317.03844603420293
10
-219.6836599192338
20
317.03844603420293
10
-217.12299991923379
20
319.59910603420292
10
-217.12299991923379
20
322.1724210342029
10
-216.62299991923379
20
323.03844603420288
10
-217.12299991923379
20
323.90447103420297
10
-217.12299991923379
20
326.47778603420301
10
-219.6836599192338
20
329.03844603420293
10
-221.12299991923382
20
329.03844603420293
10
-221.12299991923382
20
326.03844603420299
10
-222.12299991923379
20
326.03844603420299
10
-222.12299991923379
20
326.53844603420293
10
-222.62299991923382
20
326.53844603420293
10
-222.62299991923382
20
331.53844603420293
10
-222.6214889192338
20
331.60574303420287
10
-222.6169609192338
20
331.67290503420293
10
-222.60942391923382
20
331.73979603420293
10
-222.5988939192338
20
331.80628203420298
10
-222.58539191923379
20
331.87222703420298
10
-222.56894391923382
20
331.93750103420302
10
-222.54958491923384
20
332.00197203420294
10
-222.52735191923381
20
332.06550803420299
10
-222.50229191923381
20
332.127984034203
10
-222.47445291923381
20
332.18927203420293
10
-222.4438929192338
20
332.24924903420293
10
-222.41067291923383
20
332.30779503420297
10
-222.37485991923381
20
332.36479103420294
10
-222.33652591923379
20
332.4201240342029
10
-222.2957479192338
20
332.47368103420285
10
-222.25260691923381
20
332.52535403420296
10
-222.20719191923382
20
332.57504003420297
10
-222.1595939192338
20
332.62263803420296
10
-222.10990791923382
20
332.66805303420301
10
-222.05823491923383
20
332.71119403420295
10
-222.00467791923381
20
332.75197203420294
10
-221.94934491923379
20
332.79030603420296
10
-221.8923489192338
20
332.82611903420297
10
-221.83380291923382
20
332.85933903420295
10
-221.77382591923379
20
332.88989903420293
10
-221.7125379192338
20
332.91773803420301
10
-221.65006191923382
20
332.94279803420295
10
-221.58652591923382
20
332.96503103420292
10
-221.52205491923382
20
332.98439003420299
10
-221.45678091923384
20
333.00083803420301
10
-221.39083591923381
20
333.01434003420297
10
-221.32434991923384
20
333.02487003420299
10
-221.25745891923378
20
333.032407034203
10
-221.19029691923379
20
333.03693503420288
10
-221.12299991923382
20
333.03844603420288
10
-216.12299991923382
20
333.03844603420288
10
-216.12299991923382
20
332.53844603420293
10
-215.62299991923382
20
332.53844603420299
10
-215.62299991923382
20
331.53844603420293
10
-218.62299991923382
20
331.53844603420293
10
-218.62299991923382
20
330.09910603420292
10
-216.06233991923381
20
327.53844603420293
10
-213.48902491923383
20
327.53844603420293
10
-212.62299991923382
20
327.03844603420293
10
-211.75697491923381
20
327.53844603420293
10
-209.1836599192338
20
327.53844603420293
10
-206.62299991923379
20
330.09910603420292
10
-206.62299991923379
20
331.53844603420293
10
-209.62299991923379
20
331.53844603420293
10
-209.62299991923379
20
332.53844603420299
10
-209.12299991923379
20
332.53844603420293
10
-209.12299991923379
20
333.03844603420293
10
-204.12299991923379
20
333.03844603420293
10
-204.05570291923382
20
333.03693503420288
10
-203.98854091923383
20
333.032407034203
10
-203.9216499192338
20
333.02487003420299
10
-203.8551639192338
20
333.01434003420297
10
-203.7892189192338
20
333.00083803420301
10
-203.72394491923382
20
332.98439003420299
10
-203.65947391923382
20
332.96503103420292
10
-203.59593791923379
20
332.94279803420295
10
-203.53346191923382
20
332.91773803420301
10
-203.4721739192338
20
332.88989903420293
10
-203.41219691923382
20
332.859339034203
10
-203.35365091923381
20
332.82611903420297
10
-203.29665491923382
20
332.79030603420296
10
-203.24132191923383
20
332.75197203420294
10
-203.18776491923381
20
332.711194034203
10
-203.13609191923379
20
332.66805303420301
10
-203.08640591923381
20
332.62263803420296
10
-203.03880791923379
20
332.57504003420297
10
-202.99339291923383
20
332.52535403420296
10
-202.95025191923384
20
332.47368103420297
10
-202.90947391923382
20
332.4201240342029
10
-202.8711399192338
20
332.36479103420294
10
-202.83532691923381
20
332.30779503420297
10
-202.80210691923384
20
332.24924903420293
10
-202.77154691923383
20
332.18927203420293
10
-202.74370791923383
20
332.127984034203
10
-202.7186479192338
20
332.06550803420299
10
-202.6964149192338
20
332.00197203420294
10
-202.67705591923379
20
331.93750103420302
10
-202.6606079192338
20
331.87222703420298
10
-202.64710591923381
20
331.80628203420298
10
-202.63657591923379
20
331.73979603420293
10
-202.62903891923384
20
331.67290503420293
10
-202.62451091923381
20
331.60574303420287
10
-202.62299991923382
20
331.53844603420293
10
-202.62299991923382
20
326.53844603420293
0
LWPOLYLINE
5
105
100
AcDbEntity
8
0
100
AcDbPolyline
90
219
70
1
43
0.0
10
-130.81150012186424
20
128.59710347688392
10
-130.87879712187396
20
128.59861447688414
10
-130.94595912187395
20
128.60314247688416
10
-131.01285012187392
20
128.61067947688414
10
-131.07933612187395
20
128.62120947688413
10
-131.14528112187398
20
128.63471147688415
10
-131.21055512187397
20
128.65115947688412
10
-131.27502612187396
20
128.67051847688413
10
-131.33856212187396
20
128.69275147688413
10
-131.40103812187397
20
128.71781147688412
10
-131.46232612187393
20
128.74565047688412
10
-131.52230312187399
20
128.77621047688416
10
-131.58084912187394
20
128.80943047688413
10
-131.63784512187394
20
128.84524347688412
10
-131.69317812187393
20
128.88357747688411
10
-131.74673512187397
20
128.92435547688416
10
-131.79840812187396
20
128.96749647688412
10
-131.84809412187394
20
129.01291147688411
10
-131.89569212187396
20
129.06050947688411
10
-131.94110712187396
20
129.11019547688412
10
-131.98424812187397
20
129.16186847688411
10
-132.02502612187399
20
129.21542547688409
10
-132.06336012187396
20
129.27075847688414
10
-132.09917312187397
20
129.32775447688414
10
-132.13239312187397
20
129.38630047688412
10
-132.16295312187398
20
129.44627747688412
10
-132.19079212187395
20
129.50756547688414
10
-132.21585212187395
20
129.57004147688414
10
-132.23808512187395
20
129.63357747688411
10
-132.25744412187396
20
129.69804847688411
10
-132.27389212187398
20
129.76332247688413
10
-132.28739412187397
20
129.82926747688413
10
-132.29792412187396
20
129.89575347688412
10
-132.30546112187398
20
129.96264447688412
10
-132.30998912187397
20
130.02980647688415
10
-132.31150012187396
20
130.09710347688414
10
-132.31150012187396
20
135.09710347688412
10
-131.81150012187396
20
135.09710347688412
10
-131.81150012187396
20
135.59710347688412
10
-130.81150012187396
20
135.59710347688412
10
-130.81150012187396
20
132.59710347688412
10
-129.372160121874
20
132.59710347688412
10
-126.81150012187395
20
135.15776347688413
10
-126.81150012187395
20
137.73107847688411
10
-126.31150012187393
20
138.59710347688412
10
-126.81150012187395
20
139.46312847688412
10
-126.81150012187395
20
142.03644347688413
10
-129.37216012187395
20
144.59710347688414
10
-130.81150012187396
20
144.59710347688414
10
-130.81150012187396
20
141.59710347688414
10
-131.81150012187396
20
141.59710347688414
10
-131.81150012187396
20
142.09710347688414
10
-132.31150012187396
20
142.09710347688414
10
-132.31150012187396
20
147.09710347688414
10
-132.30998912187397
20
147.16440047688414
10
-132.30546112187398
20
147.23156247688411
10
-132.29792412187396
20
147.29845347688413
10
-132.28739412187397
20
147.36493947688413
10
-132.27389212187398
20
147.43088447688416
10
-132.25744412187399
20
147.49615847688415
10
-132.23808512187395
20
147.56062947688415
10
-132.21585212187395
20
147.62416547688414
10
-132.19079212187395
20
147.68664147688412
10
-132.16295312187395
20
147.74792947688414
10
-132.13239312187395
20
147.80790647688414
10
-132.09917312187397
20
147.86645247688412
10
-132.06336012187396
20
147.92344847688412
10
-132.02502612187396
20
147.97878147688411
10
-131.98424812187397
20
148.03233847688409
10
-131.94110712187396
20
148.08401147688414
10
-131.89569212187396
20
148.13369747688415
10
-131.848094121874
20
148.18129547688412
10
-131.79840812187396
20
148.22671047688414
10
-131.74673512187397
20
148.26985147688413
10
-131.69317812187398
20
148.31062947688412
10
-131.63784512187394
20
148.34896347688414
10
-131.58084912187394
20
148.38477647688416
10
-131.52230312187396
20
148.41799647688413
10
-131.46232612187396
20
148.44855647688411
10
-131.40103812187397
20
148.47639547688414
10
-131.33856212187396
20
148.50145547688413
10
-131.27502612187396
20
148.52368847688413
10
-131.21055512187397
20
148.54304747688414
10
-131.14528112187398
20
148.55949547688414
10
-131.07933612187395
20
148.57299747688413
10
-131.01285012187395
20
148.58352747688411
10
-130.94595912187398
20
148.59106447688416
10
-130.87879712187396
20
148.59559247688412
10
-130.81150012187396
20
148.59710347688412
10
-125.81150012187396
20
148.59710347688412
10
-125.81150012187396
20
148.09710347688412
10
-125.31150012187396
20
148.09710347688412
10
-125.31150012187396
20
147.09710347688414
10
-128.31150012187396
20
147.09710347688414
10
-128.31150012187396
20
145.65776347688413
10
-125.75084012187396
20
143.09710347688412
10
-123.17752512187397
20
143.09710347688412
10
-122.31150012187396
20
142.59710347688412
10
-121.44547512187398
20
143.09710347688412
10
-118.87216012187395
20
143.09710347688412
10
-116.31150012187393
20
145.65776347688413
10
-116.31150012187393
20
147.09710347688412
10
-119.31150012187395
20
147.09710347688414
10
-119.31150012187395
20
148.09710347688414
10
-118.81150012187393
20
148.09710347688412
10
-118.81150012187393
20
148.59710347688412
10
-113.81150012187393
20
148.59710347688412
10
-113.74420312187397
20
148.59559247688412
10
-113.67704112187397
20
148.59106447688413
10
-113.61015012187397
20
148.58352747688411
10
-113.54366412187396
20
148.57299747688413
10
-113.47771912187395
20
148.55949547688414
10
-113.41244512187394
20
148.54304747688414
10
-113.34797412187396
20
148.52368847688413
10
-113.28443812187395
20
148.50145547688413
10
-113.22196212187396
20
148.47639547688414
10
-113.16067412187397
20
148.44855647688411
10
-113.10069712187396
20
148.41799647688416
10
-113.04215112187396
20
148.38477647688416
10
-112.98515512187396
20
148.34896347688411
10
-112.92982212187397
20
148.31062947688412
10
-112.87626512187394
20
148.26985147688413
10
-112.82459212187398
20
148.22671047688414
10
-112.77490612187395
20
148.18129547688415
10
-112.72730812187397
20
148.13369747688415
10
-112.68189312187396
20
148.08401147688414
10
-112.63875212187398
20
148.03233847688409
10
-112.59797412187396
20
147.97878147688411
10
-112.55964012187394
20
147.92344847688412
10
-112.52382712187398
20
147.86645247688412
10
-112.49060712187398
20
147.80790647688414
10
-112.46004712187397
20
147.74792947688414
10
-112.43220812187396
20
147.68664147688415
10
-112.40714812187395
20
147.62416547688414
10
-112.38491512187395
20
147.56062947688412
10
-112.36555612187395
20
147.49615847688415
10
-112.34910812187397
20
147.43088447688413
10
-112.33560612187397
20
147.36493947688413
10
-112.32507612187393
20
147.29845347688413
10
-112.31753912187398
20
147.23156247688411
10
-112.31301112187396
20
147.16440047688411
10
-112.31150012187396
20
147.09710347688414
10
-112.31150012187396
20
142.09710347688414
10
-112.81150012187396
20
142.09710347688414
10
-112.81150012187396
20
141.59710347688414
10
-113.81150012187393
20
141.59710347688414
10
-113.81150012187393
20
144.59710347688414
10
-115.25084012187395
20
144.59710347688414
10
-117.81150012187396
20
142.03644347688413
10
-117.81150012187396
20
139.46312847688415
10
-118.31150012187396
20
138.59710347688412
10
-117.81150012187396
20
137.73107847688411
10
-117.81150012187396
20
135.15776347688413
10
-115.25084012187395
20
132.59710347688412
10
-113.81150012187393
20
132.59710347688412
10
-113.81150012187393
20
135.59710347688412
10
-112.81150012187396
20
135.59710347688412
10
-112.81150012187396
20
135.09710347688412
10
-112.31150012187396
20
135.09710347688412
10
-112.31150012187396
20
130.09710347688412
10
-112.31301112187396
20
130.02980647688415
10
-112.31753912187398
20
129.96264447688415
10
-112.32507612187398
20
129.89575347688412
10
-112.33560612187397
20
129.82926747688413
10
-112.34910812187397
20
129.76332247688413
10
-112.36555612187395
20
129.69804847688411
10
-112.38491512187395
20
129.63357747688411
10
-112.40714812187395
20
129.57004147688414
10
-112.43220812187396
20
129.50756547688414
10
-112.46004712187397
20
129.44627747688412
10
-112.49060712187398
20
129.38630047688412
10
-112.52382712187395
20
129.32775447688414
10
-112.55964012187394
20
129.27075847688414
10
-112.59797412187399
20
129.21542547688409
10
-112.63875212187398
20
129.16186847688411
10
-112.68189312187396
20
129.11019547688414
10
-112.72730812187393
20
129.06050947688414
10
-112.77490612187395
20
129.01291147688411
10
-112.82459212187393
20
128.96749647688415
10
-112.87626512187398
20
128.92435547688413
10
-112.92982212187397
20
128.88357747688411
10
-112.98515512187396
20
128.84524347688412
10
-113.04215112187396
20
128.80943047688413
10
-113.10069712187396
20
128.77621047688416
10
-113.16067412187397
20
128.74565047688412
10
-113.22196212187396
20
128.71781147688412
10
-113.28443812187395
20
128.69275147688413
10
-113.34797412187396
20
128.67051847688413
10
-113.41244512187394
20
128.65115947688412
10
-113.47771912187397
20
128.63471147688415
10
-113.54366412187396
20
128.62120947688413
10
-113.61015012187397
20
128.61067947688414
10
-113.67704112187397
20
128.60314247688416
10
-113.74420312187397
20
128.59861447688414
10
-113.81150012187393
20
128.59710347688412
10
-88.352885291511711
20
128.59710347688454
42
0.13165249758739023
10
-78.352885291511996
20
131.27659540119578
10
-7.3995807703853353
20
172.24150486636182
42
0.26211200900045545
10
2.5956599152369253
20
189.12572184194019
10
3.5859729297723342
20
234.51181171342455
42
0.18195609507609631
10
-1.0883788934704
20
247.80385500726572
10
-12.32088878159044
20
261.19023902028283
42
-0.17632698070846486
10
-16.999999919210875
20
274.04599121401361
10
-16.999999919210882
20
321.66848874727827
42
0.31529878887899043
10
-30.159597052697823
20
340.46234116299661
10
-79.127821594426948
20
358.28531732104875
42
0.0874886635259252
10
-85.968224460940078
20
359.49146490533053
10
-158.65477553906268
20
359.49146490533025
42
0.087488663525927074
10
-165.49517840557598
20
358.28531732104852
10
-214.46340294730589
20
340.46234116299507
42
0.3152987888789886
10
-227.62300008079256
20
321.66848874727646
10
-227.6230000807918
20
274.04599121401185
42
-0.176326980708465
10
-232.30211121841199
20
261.19023902028096
10
-243.53462110653192
20
247.80385500726368
42
0.18195609507609725
10
-248.20897292977438
20
234.51181171342242
10
-247.21865991523822
20
189.12572184193806
42
0.26211200900045467
10
-237.22341922961562
20
172.24150486635989
10
-166.27011470848748
20
131.27659540119461
42
0.13165249758739467
10
-156.27011470848748
20
128.59710347688355
0
CIRCLE
5
106
100
AcDbEntity
8
0
100
AcDbCircle
10
-103.31150000000201
20
347.49146490533064
30
0
40
2.0500000000000007
210
0
220
0
230
1
0
CIRCLE
5
107
100
AcDbEntity
8
0
100
AcDbCircle
10
-186.62300000001238
20
323.03844620197225
30
0
40
2.1000000000000085
210
0
220
0
230
1
0
CIRCLE
5
108
100
AcDbEntity
8
0
100
AcDbCircle
10
-234.64937623397446
20
230.06482243593339
30
0
40
2.0500000000000185
210
0
220
0
230
1
0
CIRCLE
5
109
100
AcDbEntity
8
0
100
AcDbCircle
10
-9.973623766028032
20
230.06482243593339
30
0
40
2.0500000000000007
210
0
220
0
230
1
0
CIRCLE
5
110
100
AcDbEntity
8
0
100
AcDbCircle
10
-176.07513568988423
20
222.03355466491166
30
0
40
2.0500000000000007
210
0
220
0
230
1
0
CIRCLE
5
111
100
AcDbEntity
8
0
100
AcDbCircle
10
-141.31150000000201
20
347.49146490533064
30
0
40
2.0500000000000007
210
0
220
0
230
1
0
CIRCLE
5
112
100
AcDbEntity
8
0
100
AcDbCircle
10
-63.149999999988999
20
208.03844620197248
30
0
40
2.0500000000000007
210
0
220
0
230
1
0
CIRCLE
5
113
100
AcDbEntity
8
0
100
AcDbCircle
10
-57.999999999988496
20
323.03844620197225
30
0
40
2.0999999999999996
210
0
220
0
230
1
0
CIRCLE
5
114
100
AcDbEntity
8
0
100
AcDbCircle
10
-181.47300000001351
20
208.03844620197248
30
0
40
2.0500000000000007
210
0
220
0
230
1
0
CIRCLE
5
115
100
AcDbEntity
8
0
100
AcDbCircle
10
-31.999999999990941
20
297.03844620197168
30
0
40
2.1000000000000028
210
0
220
0
230
1
0
CIRCLE
5
116
100
AcDbEntity
8
0
100
AcDbCircle
10
-122.31150000000211
20
153.59710399853475
30
0
40
2.0500000000000007
210
0
220
0
230
1
0
CIRCLE
5
117
100
AcDbEntity
8
0
100
AcDbCircle
10
-122.311500000002
20
332.15663412055858
30
0
40
2.0500000000000007
210
0
220
0
230
1
0
CIRCLE
5
118
100
AcDbEntity
8
0
100
AcDbCircle
10
-68.547864310118285
20
222.03355466491166
30
0
40
2.0500000000000007
210
0
220
0
230
1
0
CIRCLE
5
119
100
AcDbEntity
8
0
100
AcDbCircle
10
-96.311500000001743
20
138.59710399853236
30
0
40
2.0999999999999996
210
0
220
0
230
1
0
CIRCLE
5
120
100
AcDbEntity
8
0
100
AcDbCircle
10
-212.62300000000999
20
297.03844620197168
30
0
40
2.1000000000000085
210
0
220
0
230
1
0
CIRCLE
5
121
100
AcDbEntity
8
0
100
AcDbCircle
10
-148.31149999999917
20
138.59710399853236
30
0
40
2.1000000000000085
210
0
220
0
230
1
0
LWPOLYLINE
5
122
100
AcDbEntity
8
0
100
AcDbPolyline
90
212
70
1
43
0.0
10
-40.499999919210907
20
329.03844603420293
10
-40.499999919210907
20
326.03844603420299
10
-41.499999919210907
20
326.03844603420299
10
-41.499999919210907
20
326.53844603420293
10
-41.9999999192109
20
326.53844603420293
10
-41.9999999192109
20
331.53844603420293
10
-41.998488919210899
20
331.60574303420287
10
-41.993960919210906
20
331.67290503420293
10
-41.986423919210907
20
331.73979603420293
10
-41.975893919210904
20
331.80628203420298
10
-41.962391919210901
20
331.87222703420298
10
-41.945943919210897
20
331.93750103420302
10
-41.926584919210903
20
332.00197203420294
10
-41.904351919210903
20
332.06550803420299
10
-41.8792919192109
20
332.127984034203
10
-41.851452919210899
20
332.18927203420293
10
-41.820892919210905
20
332.24924903420293
10
-41.787672919210905
20
332.30779503420297
10
-41.751859919210901
20
332.36479103420294
10
-41.713525919210909
20
332.4201240342029
10
-41.672747919210906
20
332.47368103420285
10
-41.6296069192109
20
332.52535403420296
10
-41.584191919210902
20
332.57504003420297
10
-41.536593919210901
20
332.62263803420296
10
-41.486907919210907
20
332.66805303420301
10
-41.435234919210906
20
332.71119403420295
10
-41.381677919210901
20
332.75197203420294
10
-41.326344919210896
20
332.79030603420296
10
-41.269348919210898
20
332.82611903420297
10
-41.210802919210899
20
332.85933903420295
10
-41.150825919210902
20
332.88989903420293
10
-41.089537919210898
20
332.91773803420301
10
-41.027061919210901
20
332.94279803420295
10
-40.963525919210902
20
332.96503103420292
10
-40.899054919210904
20
332.98439003420299
10
-40.833780919210902
20
333.00083803420301
10
-40.76783591921091
20
333.01434003420297
10
-40.701349919210905
20
333.02487003420299
10
-40.6344589192109
20
333.032407034203
10
-40.567296919210904
20
333.03693503420288
10
-40.4999999192109
20
333.03844603420288
10
-35.4999999192109
20
333.03844603420288
10
-35.4999999192109
20
332.53844603420293
10
-34.9999999192109
20
332.53844603420299
10
-34.9999999192109
20
331.53844603420293
10
-37.9999999192109
20
331.53844603420293
10
-37.9999999192109
20
330.09910603420292
10
-35.439339919210902
20
327.53844603420293
10
-32.866024919210901
20
327.53844603420293
10
-31.9999999192109
20
327.03844603420293
10
-31.1339749192109
20
327.53844603420293
10
-28.560659919210902
20
327.53844603420293
10
-25.9999999192109
20
330.09910603420292
10
-25.999999919210907
20
331.53844603420293
10
-28.999999919210904
20
331.53844603420293
10
-28.999999919210904
20
332.53844603420299
10
-28.4999999192109
20
332.53844603420293
10
-28.4999999192109
20
333.03844603420293
10
-23.4999999192109
20
333.03844603420293
10
-23.432702919210904
20
333.03693503420288
10
-23.365540919210904
20
333.032407034203
10
-23.298649919210902
20
333.02487003420299
10
-23.232163919210901
20
333.01434003420297
10
-23.166218919210905
20
333.00083803420301
10
-23.100944919210903
20
332.98439003420299
10
-23.036473919210898
20
332.96503103420292
10
-22.972937919210903
20
332.94279803420295
10
-22.910461919210903
20
332.91773803420301
10
-22.849173919210905
20
332.88989903420293
10
-22.789196919210902
20
332.859339034203
10
-22.730650919210902
20
332.82611903420297
10
-22.673654919210904
20
332.79030603420296
10
-22.618321919210903
20
332.75197203420294
10
-22.564764919210901
20
332.711194034203
10
-22.5130919192109
20
332.66805303420301
10
-22.463405919210899
20
332.62263803420296
10
-22.415807919210906
20
332.57504003420297
10
-22.3703929192109
20
332.52535403420296
10
-22.327251919210902
20
332.47368103420297
10
-22.286473919210902
20
332.4201240342029
10
-22.248139919210903
20
332.36479103420294
10
-22.212326919210899
20
332.30779503420297
10
-22.179106919210902
20
332.24924903420293
10
-22.148546919210901
20
332.18927203420293
10
-22.120707919210901
20
332.127984034203
10
-22.095647919210897
20
332.06550803420299
10
-22.073414919210901
20
332.00197203420294
10
-22.054055919210903
20
331.93750103420302
10
-22.037607919210906
20
331.87222703420298
10
-22.024105919210903
20
331.80628203420298
10
-22.013575919210901
20
331.73979603420293
10
-22.006038919210901
20
331.67290503420293
10
-22.001510919210901
20
331.60574303420287
10
-21.9999999192109
20
331.53844603420293
10
-21.9999999192109
20
326.53844603420293
10
-22.4999999192109
20
326.53844603420293
10
-22.4999999192109
20
326.03844603420299
10
-23.4999999192109
20
326.03844603420299
10
-23.4999999192109
20
329.03844603420293
10
-24.939339919210902
20
329.03844603420293
10
-27.4999999192109
20
326.47778603420295
10
-27.499999919210904
20
323.90447103420291
10
-27.999999919210904
20
323.03844603420293
10
-27.4999999192109
20
322.17242103420296
10
-27.4999999192109
20
319.59910603420298
10
-24.939339919210902
20
317.03844603420293
10
-23.4999999192109
20
317.03844603420293
10
-23.4999999192109
20
320.03844603420293
10
-22.4999999192109
20
320.03844603420293
10
-22.4999999192109
20
319.53844603420293
10
-21.9999999192109
20
319.53844603420293
10
-21.9999999192109
20
314.53844603420299
10
-22.001510919210901
20
314.47114903420299
10
-22.006038919210901
20
314.40398703420294
10
-22.013575919210901
20
314.337096034203
10
-22.024105919210903
20
314.27061003420295
10
-22.037607919210906
20
314.20466503420289
10
-22.054055919210903
20
314.1393910342029
10
-22.073414919210901
20
314.07492003420293
10
-22.095647919210897
20
314.01138403420293
10
-22.120707919210901
20
313.94890803420299
10
-22.148546919210901
20
313.887620034203
10
-22.179106919210902
20
313.82764303420294
10
-22.212326919210902
20
313.76909703420296
10
-22.248139919210903
20
313.71210103420299
10
-22.286473919210898
20
313.65676803420291
10
-22.327251919210902
20
313.6032110342029
10
-22.3703929192109
20
313.55153803420296
10
-22.415807919210899
20
313.50185203420295
10
-22.463405919210899
20
313.4542540342029
10
-22.5130919192109
20
313.40883903420291
10
-22.564764919210901
20
313.36569803420298
10
-22.618321919210903
20
313.32492003420299
10
-22.673654919210904
20
313.28658603420297
10
-22.730650919210902
20
313.25077303420295
10
-22.789196919210902
20
313.21755303420298
10
-22.849173919210905
20
313.18699303420294
10
-22.910461919210903
20
313.15915403420291
10
-22.972937919210899
20
313.13409403420297
10
-23.036473919210898
20
313.11186103420289
10
-23.100944919210903
20
313.09250203420288
10
-23.166218919210905
20
313.07605403420291
10
-23.232163919210901
20
313.06255203420289
10
-23.298649919210902
20
313.05202203420299
10
-23.365540919210904
20
313.04448503420298
10
-23.432702919210904
20
313.03995703420293
10
-23.4999999192109
20
313.03844603420293
10
-28.4999999192109
20
313.03844603420293
10
-28.499999919210907
20
313.53844603420299
10
-28.999999919210904
20
313.53844603420299
10
-28.999999919210904
20
314.53844603420299
10
-25.9999999192109
20
314.53844603420293
10
-25.9999999192109
20
315.97778603420295
10
-28.560659919210902
20
318.53844603420299
10
-31.1339749192109
20
318.53844603420299
10
-31.9999999192109
20
319.03844603420299
10
-32.866024919210901
20
318.53844603420299
10
-35.439339919210902
20
318.53844603420293
10
-37.9999999192109
20
315.97778603420295
10
-37.9999999192109
20
314.53844603420293
10
-34.9999999192109
20
314.53844603420299
10
-34.9999999192109
20
313.53844603420299
10
-35.4999999192109
20
313.53844603420293
10
-35.4999999192109
20
313.03844603420293
10
-40.499999919210907
20
313.03844603420293
10
-40.567296919210904
20
313.03995703420298
10
-40.6344589192109
20
313.04448503420298
10
-40.701349919210905
20
313.05202203420293
10
-40.76783591921091
20
313.06255203420289
10
-40.833780919210902
20
313.07605403420297
10
-40.899054919210897
20
313.09250203420299
10
-40.963525919210902
20
313.11186103420289
10
-41.027061919210901
20
313.13409403420297
10
-41.089537919210898
20
313.15915403420297
10
-41.150825919210902
20
313.18699303420294
10
-41.210802919210899
20
313.21755303420298
10
-41.269348919210898
20
313.25077303420295
10
-41.326344919210896
20
313.28658603420297
10
-41.381677919210901
20
313.32492003420299
10
-41.435234919210906
20
313.36569803420298
10
-41.486907919210907
20
313.40883903420291
10
-41.536593919210901
20
313.4542540342029
10
-41.584191919210902
20
313.50185203420295
10
-41.6296069192109
20
313.55153803420296
10
-41.672747919210906
20
313.60321103420296
10
-41.713525919210909
20
313.65676803420291
10
-41.751859919210901
20
313.71210103420299
10
-41.787672919210905
20
313.76909703420296
10
-41.820892919210905
20
313.82764303420294
10
-41.851452919210899
20
313.887620034203
10
-41.8792919192109
20
313.94890803420299
10
-41.904351919210903
20
314.01138403420293
10
-41.926584919210903
20
314.07492003420293
10
-41.945943919210897
20
314.13939103420296
10
-41.962391919210901
20
314.20466503420295
10
-41.975893919210904
20
314.27061003420295
10
-41.986423919210907
20
314.337096034203
10
-41.993960919210906
20
314.40398703420294
10
-41.998488919210899
20
314.47114903420299
10
-41.9999999192109
20
314.53844603420293
10
-41.9999999192109
20
319.53844603420293
10
-41.499999919210907
20
319.53844603420293
10
-41.499999919210907
20
320.03844603420293
10
-40.499999919210907
20
320.03844603420293
10
-40.499999919210907
20
317.03844603420293
10
-39.060659919210899
20
317.03844603420293
10
-36.499999919210907
20
319.59910603420292
10
-36.499999919210907
20
322.1724210342029
10
-35.999999919210907
20
323.03844603420288
10
-36.499999919210907
20
323.90447103420297
10
-36.499999919210907
20
326.47778603420301
10
-39.060659919210899
20
329.03844603420293
0
ENDSEC
0
SECTION
2
OBJECTS
0
DICTIONARY
5
C
100
AcDbDictionary
3
ACAD_GROUP
350
D
3
ACAD_MLINESTYLE
350
17
0
DICTIONARY
5
D
100
AcDbDictionary
0
DICTIONARY
5
1A
330
C
100
AcDbDictionary
0
DICTIONARY
5
17
100
AcDbDictionary
0
ENDSEC
0
EOF
