0
SECTION
2
HEADER
9
$INSUNITS
70
4
9
$ACADVER
1
AC1014
9
$HANDSEED
5
FFFF
0
ENDSEC
0
SECTION
2
TABLES
0
TABLE
2
VPORT
5
8
100
AcDbSymbolTable
0
ENDTAB
0
TABLE
2
LTYPE
5
5
100
AcDbSymbolTable
0
LTYPE
5
14
100
AcDbSymbolTableRecord
100
AcDbLinetypeTableRecord
2
BYBLOCK
70
0
0
LTYPE
5
15
100
AcDbSymbolTableRecord
100
AcDbLinetypeTableRecord
2
BYLAYER
70
0
0
ENDTAB
0
TABLE
2
LAYER
5
2
100
AcDbSymbolTable
70
2
0
LAYER
5
50
100
AcDbSymbolTableRecord
100
AcDbLayerTableRecord
2
0
70
0
6
CONTINUOUS
0
ENDTAB
0
TABLE
2
STYLE
5
3
100
AcDbSymbolTable
70
1
0
STYLE
5
11
100
AcDbSymbolTableRecord
100
AcDbTextStyleTableRecord
2
STANDARD
70
0
0
ENDTAB
0
TABLE
2
VIEW
5
6
100
AcDbSymbolTable
70
0
0
ENDTAB
0
TABLE
2
UCS
5
7
100
AcDbSymbolTable
70
0
0
ENDTAB
0
TABLE
2
APPID
5
9
100
AcDbSymbolTable
70
2
0
APPID
5
12
100
AcDbSymbolTableRecord
100
AcDbRegAppTableRecord
2
ACAD
70
0
0
ENDTAB
0
TABLE
2
DIMSTYLE
5
A
100
AcDbSymbolTable
70
1
0
ENDTAB
0
TABLE
2
BLOCK_RECORD
5
1
100
AcDbSymbolTable
70
1
0
BLOCK_RECORD
5
1F
100
AcDbSymbolTableRecord
100
AcDbBlockTableRecord
2
*MODEL_SPACE
0
BLOCK_RECORD
5
1B
100
AcDbSymbolTableRecord
100
AcDbBlockTableRecord
2
*PAPER_SPACE
0
ENDTAB
0
ENDSEC
0
SECTION
2
BLOCKS
0
BLOCK
5
20
100
AcDbEntity
100
AcDbBlockBegin
2
*MODEL_SPACE
0
ENDBLK
5
21
100
AcDbEntity
100
AcDbBlockEnd
0
BLOCK
5
1C
100
AcDbEntity
100
AcDbBlockBegin
2
*PAPER_SPACE
0
ENDBLK
5
1D
100
AcDbEntity
100
AcDbBlockEnd
0
ENDSEC
0
SECTION
2
ENTITIES
0
LWPOLYLINE
5
100
100
AcDbEntity
8
0
100
AcDbPolyline
90
36
70
1
43
0.0
10
-88.352885291511726
20
128.59710347688457
42
0.13165249758739012
10
-78.352885291512024
20
131.27659540119578
10
-7.3995807703853531
20
172.24150486636182
42
0.26211200900045545
10
2.5956599152369075
20
189.12572184194019
10
3.5859729297723208
20
234.51181171342458
42
0.181956095076098
10
-1.0883788934704131
20
247.80385500726578
10
-12.320888781590458
20
261.19023902028283
42
-0.17632698070846486
10
-16.999999919210893
20
274.04599121401367
10
-16.9999999192109
20
333.9093697043881
42
0.08748866352592774
10
-17.603073711351819
20
337.32957113764479
10
-21.561496378312619
20
348.20524803177693
42
0.22169466264294413
10
-27.538221152915167
20
354.18197280637935
10
-37.568356260948917
20
357.83264343137193
42
0.22169466264293594
10
-45.988557694205667
20
357.09597126135702
10
-53.500329403496337
20
352.75904784290685
42
-0.22169466264294441
10
-61.920530836753152
20
352.02237567289194
10
-80.784753220599868
20
358.88839111318998
42
0.087488663525905647
10
-84.204954653856532
20
359.49146490533087
10
-160.41804534614872
20
359.49146490532991
42
0.087488663525897153
10
-163.83824677940521
20
358.88839111318902
10
-182.70246916325078
20
352.02237567289092
42
-0.22169466264294418
10
-191.12267059650765
20
352.75904784290566
10
-198.63444230579819
20
357.09597126135577
42
0.22169466264294499
10
-207.05464373905505
20
357.83264343137046
10
-217.08477884708887
20
354.18197280637776
42
0.22169466264293844
10
-223.06150362169126
20
348.20524803177523
10
-227.0199262886519
20
337.32957113764292
42
0.087488663525921356
10
-227.62300008079279
20
333.90936970438622
10
-227.6230000807918
20
274.04599121401185
42
-0.17632698070846453
10
-232.30211121841199
20
261.19023902028101
10
-243.53462110653192
20
247.80385500726368
42
0.18195609507609725
10
-248.20897292977438
20
234.51181171342242
10
-247.21865991523822
20
189.12572184193806
42
0.26211200900045467
10
-237.22341922961562
20
172.24150486635989
10
-166.27011470848748
20
131.27659540119464
42
0.13165249758739417
10
-156.27011470848748
20
128.59710347688355
0
LWPOLYLINE
5
101
100
AcDbEntity
8
0
100
AcDbPolyline
90
8
70
1
43
0.0
10
-46.318289749476875
20
345.35859498669311
10
-41.796226250088438
20
347.96940956535769
42
-0.22169466264294219
10
-40.112185963437092
20
348.11674399936072
10
-31.834794316940137
20
345.10401982267229
42
-0.22169466264294116
10
-30.639449362019636
20
343.90867486775176
10
-28.853547009236436
20
339.0019484801291
42
-0.63707026080749318
10
-31.416972537459568
20
336.4385229519059
10
-46.00233003612815
20
341.7471589375524
42
-0.63707026080748885
0
CIRCLE
5
102
100
AcDbEntity
8
0
100
AcDbCircle
10
-181.47300000001351
20
208.03844620197248
30
0
40
2.0500000000000007
210
0
220
0
230
1
0
CIRCLE
5
103
100
AcDbEntity
8
0
100
AcDbCircle
10
-9.9736237660280498
20
230.06482243593342
30
0
40
2.0500000000000007
210
0
220
0
230
1
0
CIRCLE
5
104
100
AcDbEntity
8
0
100
AcDbCircle
10
-122.31150000000213
20
153.59710399853475
30
0
40
2.0500000000000007
210
0
220
0
230
1
0
CIRCLE
5
105
100
AcDbEntity
8
0
100
AcDbCircle
10
-212.62300000001352
20
208.03844620197248
30
0
40
14.999500000000019
210
0
220
0
230
1
0
CIRCLE
5
106
100
AcDbEntity
8
0
100
AcDbCircle
10
-31.999999999990962
20
297.03844620197168
30
0
40
2.1000000000000028
210
0
220
0
230
1
0
CIRCLE
5
107
100
AcDbEntity
8
0
100
AcDbCircle
10
-57.999999999988518
20
323.03844620197225
30
0
40
2.0999999999999996
210
0
220
0
230
1
0
CIRCLE
5
108
100
AcDbEntity
8
0
100
AcDbCircle
10
-63.149999999989021
20
208.0384462019725
30
0
40
2.0500000000000007
210
0
220
0
230
1
0
CIRCLE
5
109
100
AcDbEntity
8
0
100
AcDbCircle
10
-186.62300000001241
20
323.03844620197225
30
0
40
2.1000000000000085
210
0
220
0
230
1
0
CIRCLE
5
110
100
AcDbEntity
8
0
100
AcDbCircle
10
-68.5478643101183
20
222.03355466491166
30
0
40
2.0500000000000007
210
0
220
0
230
1
0
CIRCLE
5
111
100
AcDbEntity
8
0
100
AcDbCircle
10
-31.999999999989001
20
208.0384462019725
30
0
40
14.999500000000012
210
0
220
0
230
1
0
CIRCLE
5
112
100
AcDbEntity
8
0
100
AcDbCircle
10
-96.311500000001757
20
138.59710399853239
30
0
40
2.0999999999999996
210
0
220
0
230
1
0
CIRCLE
5
113
100
AcDbEntity
8
0
100
AcDbCircle
10
-212.62300000000999
20
297.03844620197168
30
0
40
2.1000000000000085
210
0
220
0
230
1
0
CIRCLE
5
114
100
AcDbEntity
8
0
100
AcDbCircle
10
-234.64937623397449
20
230.06482243593339
30
0
40
2.0500000000000185
210
0
220
0
230
1
0
LWPOLYLINE
5
115
100
AcDbEntity
8
0
100
AcDbPolyline
90
8
70
1
43
0.0
10
-212.78820568306367
20
345.10401982267075
10
-204.51081403656679
20
348.1167439993593
42
-0.22169466264294371
10
-202.82677374991545
20
347.96940956535644
10
-198.30471025052702
20
345.35859498669191
42
-0.63707026080748819
10
-198.62066996387568
20
341.74715893755121
10
-213.20602746254409
20
336.43852295190447
42
-0.63707026080748552
10
-215.76945299076726
20
339.00194848012751
10
-213.98355063798414
20
343.90867486775028
42
-0.22169466264293847
0
CIRCLE
5
116
100
AcDbEntity
8
0
100
AcDbCircle
10
-148.3114999999992
20
138.59710399853239
30
0
40
2.1000000000000085
210
0
220
0
230
1
0
CIRCLE
5
117
100
AcDbEntity
8
0
100
AcDbCircle
10
-176.07513568988423
20
222.03355466491166
30
0
40
2.0500000000000007
210
0
220
0
230
1
0
CIRCLE
5
118
100
AcDbEntity
8
0
100
AcDbCircle
10
-122.31150000000201
20
332.15663412055858
30
0
40
2.0500000000000007
210
0
220
0
230
1
0
CIRCLE
5
119
100
AcDbEntity
8
0
100
AcDbCircle
10
-141.31150000000204
20
347.49146490533064
30
0
40
2.0500000000000007
210
0
220
0
230
1
0
CIRCLE
5
120
100
AcDbEntity
8
0
100
AcDbCircle
10
-103.31150000000204
20
347.49146490533064
30
0
40
2.0500000000000007
210
0
220
0
230
1
0
LWPOLYLINE
5
121
100
AcDbEntity
8
0
100
AcDbPolyline
90
13
70
1
43
0.0
10
-92.878992936596774
20
242.5891078313056
42
0.19462943100275151
10
-99.776815871132328
20
190.53692540035715
42
-0.33691998612111329
10
-100.71329632459346
20
188.30483114131363
10
-104.3012417436769
20
186.23332988776804
42
-0.49143990097018098
10
-107.23022178956344
20
187.4371421293728
42
-0.053772336090948523
10
-109.89290607289385
20
203.95247220329185
42
-0.28204222867365475
10
-108.89565207102456
20
205.78929157492945
10
-105.00000198290738
20
208.03844620197242
10
-108.89565207102456
20
210.28760082901542
42
-0.28204222867366169
10
-109.8929060728936
20
212.12442020065305
42
-0.12439452602838516
10
-98.600925455593426
20
248.63791329770234
42
-0.57231858477906938
10
-95.152507805111682
20
248.58176572472661
10
-92.877691121626896
20
244.56113399598155
42
-0.26363631801332588
0
LWPOLYLINE
5
122
100
AcDbEntity
8
0
100
AcDbPolyline
90
12
70
1
43
0.0
10
-123.3115608200757
20
195.16248781897971
42
0.26796330561354581
10
-121.31146959273947
20
195.16254049231026
10
-118.98311575314155
20
196.50697972875355
42
-0.52742909190903464
10
-116.0064032723383
20
195.07988882687056
42
0.0043401279815985854
10
-115.76879003725365
20
193.62352977165412
42
-0.31415172021859405
10
-116.7397291637353
20
191.55235713317299
10
-121.31146959273954
20
188.91254049231023
42
-0.26796330561354548
10
-123.31156082007578
20
188.91248781897971
10
-127.88324085966613
20
191.55194852048595
42
-0.31416732783507229
10
-128.85426980542121
20
193.62318201481156
42
0.0043405417609899575
10
-128.61662907642943
20
195.07967912137218
42
-0.52741146360409363
10
-125.64000858410981
20
196.50681776233876
0
LWPOLYLINE
5
123
100
AcDbEntity
8
0
100
AcDbPolyline
90
12
70
1
43
0.0
10
-123.31156082007578
20
232.66248781897968
42
0.26796330561354986
10
-121.3114695927395
20
232.66254049231023
10
-116.04514203076967
20
235.70342598224826
42
-0.6830834966501772
10
-113.1359691757681
20
233.37526735039989
42
0.0059149718715272052
10
-113.71266462237925
20
231.44870976967184
42
-0.19442669274961039
10
-114.6352243273345
20
230.26754136643819
10
-121.31146959273951
20
226.41254049231023
42
-0.26796330561354548
10
-123.31156082007575
20
226.41248781897971
10
-129.98749938813748
20
230.26684274834344
42
-0.19444236211492069
10
-130.91015457461739
20
231.44807867421258
42
0.0059152864727772562
10
-131.48686702389287
20
233.37474280746122
42
-0.68306181464322013
10
-128.57778154210177
20
235.70294177045338
0
LWPOLYLINE
5
124
100
AcDbEntity
8
0
100
AcDbPolyline
90
8
70
1
43
0.0
10
-93.311925801229165
20
292.58081134375965
10
-116.18720592040185
20
279.37215567733506
42
-0.57735904771099711
10
-119.18729714704457
20
281.10410114064535
10
-119.18734010604994
20
282.73532378952166
42
-0.26794213587725618
10
-118.18743133407978
20
284.46737459468801
10
-95.312194172605999
20
297.67600545645666
42
-0.57735026918962618
10
-92.312102948043972
20
295.94411266407434
10
-92.31201703133965
20
294.31291481985403
42
-0.26794919243112275
0
LWPOLYLINE
5
125
100
AcDbEntity
8
0
100
AcDbPolyline
90
8
70
1
43
0.0
10
-152.31327294377729
20
281.81133465893788
10
-152.31327294377729
20
283.44253250542096
42
-0.57735026918962851
10
-149.31327294377726
20
285.17458331298985
10
-126.43701090488344
20
271.96696726678221
42
-0.26794213587725763
10
-125.43701090557697
20
270.23496913014134
10
-125.4369679465716
20
268.60374648126492
42
-0.57735904771100333
10
-128.43696794587805
20
266.87164300276805
10
-151.31327294377726
20
280.07928385136904
42
-0.26794919243112453
0
LWPOLYLINE
5
126
100
AcDbEntity
8
0
100
AcDbPolyline
90
8
70
1
43
0.0
10
-152.31327294377729
20
294.31133465893788
10
-152.31327294377729
20
295.94253250542096
42
-0.57735026918962851
10
-149.31327294377726
20
297.67458331298985
10
-126.43734010318906
20
284.46715732951253
42
-0.26794213587725763
10
-125.43734010388258
20
282.73515919287166
10
-125.43729714487722
20
281.1039365439953
42
-0.57735904771100333
10
-128.43729714418367
20
279.37183306549844
10
-151.31327294377726
20
292.57928385136904
42
-0.26794919243112453
0
LWPOLYLINE
5
127
100
AcDbEntity
8
0
100
AcDbPolyline
90
8
70
1
43
0.0
10
-93.311267414629228
20
280.08081136109854
10
-116.18687672209626
20
266.87196561460462
42
-0.57735904771099511
10
-119.18696794873897
20
268.60391107791492
10
-119.18701090774435
20
270.23513372679133
42
-0.26794213587725618
10
-118.18710213577418
20
271.96718453195768
10
-95.311535786006019
20
285.17600547379561
42
-0.57735026918962573
10
-92.311444561444006
20
283.44411268141323
10
-92.311358644739713
20
281.81291483719286
42
-0.26794919243112275
0
LWPOLYLINE
5
128
100
AcDbEntity
8
0
100
AcDbPolyline
90
12
70
1
43
0.0
10
-123.31156082007573
20
245.16248781897968
42
0.26796330561353116
10
-121.31146959273947
20
245.16254049231026
10
-108.87035507346327
20
252.34629504900056
42
-0.76250425575057512
10
-106.12611984966415
20
249.63554172596247
42
0.0077498698809765152
10
-107.37976371529724
20
247.31810025117022
42
-0.14264786833590212
10
-108.15331398714461
20
246.51032927103068
10
-121.31146959273947
20
238.91254049231026
42
-0.26796330561354581
10
-123.3115608200757
20
238.91248781897971
10
-136.46885371653025
20
246.50885441455432
42
-0.14266600610207392
10
-137.24251225178273
20
247.31671076188985
42
0.007749876978614091
10
-138.49611458043074
20
249.63417744920599
42
-0.76247615615157993
10
-135.75195257055822
20
252.34495134494509
0
LWPOLYLINE
5
129
100
AcDbEntity
8
0
100
AcDbPolyline
90
12
70
1
43
0.0
10
-123.31156082007575
20
207.66248781897971
42
0.2679633056135427
10
-121.31146959273948
20
207.66254049231031
10
-119.98969876084004
20
208.42575806593254
42
-0.57222693219367993
10
-116.98984644077933
20
206.72467225974654
42
0.0046225309604611062
10
-116.95102841266578
20
205.15352477687642
42
-0.27705197483897148
10
-117.9497849126866
20
203.35364613851817
10
-121.31146959273948
20
201.4125404923102
42
-0.26796330561354603
10
-123.31156082007574
20
201.41248781897968
10
-126.67313406303194
20
203.35329303570109
42
-0.27706708346009279
10
-127.67198155583611
20
205.15323125381485
42
0.0046229302864887146
10
-127.63315600027641
20
206.72451435427544
42
-0.57220883633695097
10
-124.63339496498853
20
208.42564911836911
0
LWPOLYLINE
5
130
100
AcDbEntity
8
0
100
AcDbPolyline
90
13
70
1
43
0.0
10
-135.72734793021178
20
210.28760085250667
10
-139.62299801709665
20
208.03844620197242
10
-135.7273479289795
20
205.78929157492945
42
-0.28204222867366169
10
-134.73009392711015
20
203.95247220329182
42
-0.05377233609094953
10
-137.39277821044067
20
187.43714212937277
42
-0.49143990097018281
10
-140.3217582563272
20
186.23332988776798
10
-143.90970367541055
20
188.30483114131354
42
-0.33691998612111412
10
-144.8461841288717
20
190.53692540035712
42
0.19462943100275615
10
-151.74400706340731
20
242.58910783130568
42
-0.26363631801332471
10
-151.74530887837716
20
244.56113399598166
10
-149.47049219489239
20
248.58176572472661
42
-0.57231858477908104
10
-146.02207454441057
20
248.63791329770234
42
-0.12439452594981028
10
-134.73009392837494
20
212.12442022476239
42
-0.28204222875718982
0
LWPOLYLINE
5
131
100
AcDbEntity
8
0
100
AcDbPolyline
90
12
70
1
43
0.0
10
-123.31156082007574
20
182.66248781897968
42
0.26796330561353321
10
-121.31146959273947
20
182.66254049231026
10
-116.52476685248983
20
185.42648077824788
42
-0.48640356392809531
10
-113.60456813951765
20
184.25411399016957
42
0.0041704142844844428
10
-113.19647279538617
20
182.89619479946856
42
-0.3502046646030797
10
-114.10688681029448
20
180.57261427928898
10
-117.31134796368934
20
178.72229272033462
42
-0.26796330561354426
10
-127.31180410037055
20
178.72202935368188
10
-130.51617332497838
20
180.57207278809213
42
-0.35022109814333913
10
-131.42667508762287
20
182.89571721879466
42
0.0041708435264440425
10
-131.01853091956772
20
184.25377411891424
42
-0.48638599343064526
10
-128.09842576473369
20
185.42618558335238
0
LWPOLYLINE
5
132
100
AcDbEntity
8
0
100
AcDbPolyline
90
8
70
1
43
0.0
10
-93.310609028029248
20
267.58081137843749
10
-116.18654752379065
20
254.37177555187435
42
-0.57735904771099711
10
-119.18663875043337
20
256.10372101518465
10
-119.18668170943873
20
257.73494366406101
42
-0.26794213587725618
10
-118.18677293746856
20
259.4669944692273
10
-95.310877399406053
20
272.6760054911345
42
-0.57735026918962817
10
-92.310786174844026
20
270.94411269875218
10
-92.310700258139747
20
269.31291485453181
42
-0.26794919243112275
0
LWPOLYLINE
5
133
100
AcDbEntity
8
0
100
AcDbPolyline
90
8
70
1
43
0.0
10
-152.31327294377729
20
306.81133465893788
10
-152.31327294377729
20
308.4425325054209
42
-0.57735026918962851
10
-149.31327294377726
20
310.1745833129898
10
-126.43766930149465
20
296.96734739224291
42
-0.26794213587725763
10
-125.43766930218817
20
295.23534925560205
10
-125.43762634318279
20
293.60412660672569
42
-0.57735904771100333
10
-128.43762634248924
20
291.87202312822876
10
-151.31327294377726
20
305.07928385136904
42
-0.26794919243112453
0
LWPOLYLINE
5
134
100
AcDbEntity
8
0
100
AcDbPolyline
90
6
70
1
43
0.0
10
-109.60133216441423
20
308.17573448653974
10
-121.31278638596186
20
301.41330074323162
42
-0.26796330561354581
10
-123.31287761329811
20
301.4132480699011
10
-135.02468800226143
20
308.17506495066692
42
-0.767316527646692
10
-134.02474067318946
20
311.90711575754221
10
-110.60147606267849
20
311.90773262008452
42
-0.76731652764668867
0
LWPOLYLINE
5
135
100
AcDbEntity
8
0
100
AcDbPolyline
90
8
70
1
43
0.0
10
-152.31327294377729
20
269.31133465893788
10
-152.31327294377729
20
270.94253250542096
42
-0.57735026918962851
10
-149.31327294377726
20
272.67458331298985
10
-126.43668170657784
20
259.46677720405182
42
-0.26794213587725763
10
-125.43668170727138
20
257.73477906741095
10
-125.43663874826603
20
256.10355641853459
42
-0.57735904771100333
10
-128.43663874757249
20
254.3714529400377
10
-151.31327294377726
20
267.57928385136904
42
-0.26794919243112453
0
LWPOLYLINE
5
136
100
AcDbEntity
8
0
100
AcDbPolyline
90
8
70
1
43
0.0
10
-93.312584187829145
20
305.0808113264207
10
-116.18753511870747
20
291.87234574006538
42
-0.57735904771099478
10
-119.18762634535017
20
293.60429120337568
10
-119.18766930435554
20
295.23551385225204
42
-0.26794213587725618
10
-118.18776053238537
20
296.96756465741839
10
-95.31285255920595
20
310.17600543911772
42
-0.57735026918962573
10
-92.312761334643938
20
308.44411264673539
10
-92.312675417939616
20
306.81291480251502
42
-0.26794919243112308
0
LWPOLYLINE
5
137
100
AcDbEntity
8
0
100
AcDbPolyline
90
12
70
1
43
0.0
10
-132.31210820073903
20
175.35895627205963
42
0.2679633056135442
10
-112.31119592737659
20
175.35948300536515
10
-99.694776803835353
20
182.64446203416739
42
-0.45504412303188657
10
-96.842055421596115
20
181.66596340831913
42
0.0049447361573278399
10
-96.307791103133468
20
180.38870834725415
42
-0.38017756845702694
10
-97.145065335886926
20
177.86671770288098
10
-112.31119592737667
20
169.10948300536515
42
-0.2679633056135452
10
-132.31210820073915
20
169.10895627205969
10
-147.47845225045813
20
177.86524909178729
42
-0.38019876469277458
10
-148.31580079905689
20
180.38733174109552
42
0.0049452661464341767
10
-147.78145322905783
20
181.66471282290757
42
-0.45502240881844042
10
-144.92883760703052
20
182.64322839107464
0
LWPOLYLINE
5
138
100
AcDbEntity
8
0
100
AcDbPolyline
90
12
70
1
43
0.0
10
-123.3115608200757
20
220.16248781897971
42
0.2679633056135502
10
-121.31146959273946
20
220.16254049231031
10
-119.22360297259361
20
221.36811747843925
42
-0.62283104131300726
10
-116.2413620499639
20
219.36950616851757
42
0.0050878199075955815
10
-116.45450130028752
20
217.65287338814773
42
-0.23778318210390814
10
-117.44157480942887
20
216.14709707005463
10
-121.31146959273947
20
213.91254049231023
42
-0.26796330561354781
10
-123.31156082007574
20
213.91248781897968
10
-127.18129228984057
20
216.14667832473998
42
-0.2377982129878661
10
-128.16845798432729
20
217.65251573161149
42
0.0050881969103248525
10
-128.38160705135661
20
219.36927644825286
42
-0.62281181955104059
10
-125.39945662903527
20
221.36793502632241
0
ENDSEC
0
SECTION
2
OBJECTS
0
DICTIONARY
5
C
100
AcDbDictionary
3
ACAD_GROUP
350
D
3
ACAD_MLINESTYLE
350
17
0
DICTIONARY
5
D
100
AcDbDictionary
0
DICTIONARY
5
1A
330
C
100
AcDbDictionary
0
DICTIONARY
5
17
100
AcDbDictionary
0
ENDSEC
0
EOF
