0
SECTION
2
HEADER
9
$INSUNITS
70
4
9
$ACADVER
1
AC1014
9
$HANDSEED
5
FFFF
0
ENDSEC
0
SECTION
2
TABLES
0
TABLE
2
VPORT
5
8
100
AcDbSymbolTable
0
ENDTAB
0
TABLE
2
LTYPE
5
5
100
AcDbSymbolTable
0
LTYPE
5
14
100
AcDbSymbolTableRecord
100
AcDbLinetypeTableRecord
2
BYBLOCK
70
0
0
LTYPE
5
15
100
AcDbSymbolTableRecord
100
AcDbLinetypeTableRecord
2
BYLAYER
70
0
0
ENDTAB
0
TABLE
2
LAYER
5
2
100
AcDbSymbolTable
70
2
0
LAYER
5
50
100
AcDbSymbolTableRecord
100
AcDbLayerTableRecord
2
0
70
0
6
CONTINUOUS
0
ENDTAB
0
TABLE
2
STYLE
5
3
100
AcDbSymbolTable
70
1
0
STYLE
5
11
100
AcDbSymbolTableRecord
100
AcDbTextStyleTableRecord
2
STANDARD
70
0
0
ENDTAB
0
TABLE
2
VIEW
5
6
100
AcDbSymbolTable
70
0
0
ENDTAB
0
TABLE
2
UCS
5
7
100
AcDbSymbolTable
70
0
0
ENDTAB
0
TABLE
2
APPID
5
9
100
AcDbSymbolTable
70
2
0
APPID
5
12
100
AcDbSymbolTableRecord
100
AcDbRegAppTableRecord
2
ACAD
70
0
0
ENDTAB
0
TABLE
2
DIMSTYLE
5
A
100
AcDbSymbolTable
70
1
0
ENDTAB
0
TABLE
2
BLOCK_RECORD
5
1
100
AcDbSymbolTable
70
1
0
BLOCK_RECORD
5
1F
100
AcDbSymbolTableRecord
100
AcDbBlockTableRecord
2
*MODEL_SPACE
0
BLOCK_RECORD
5
1B
100
AcDbSymbolTableRecord
100
AcDbBlockTableRecord
2
*PAPER_SPACE
0
ENDTAB
0
ENDSEC
0
SECTION
2
BLOCKS
0
BLOCK
5
20
100
AcDbEntity
100
AcDbBlockBegin
2
*MODEL_SPACE
0
ENDBLK
5
21
100
AcDbEntity
100
AcDbBlockEnd
0
BLOCK
5
1C
100
AcDbEntity
100
AcDbBlockBegin
2
*PAPER_SPACE
0
ENDBLK
5
1D
100
AcDbEntity
100
AcDbBlockEnd
0
ENDSEC
0
SECTION
2
ENTITIES
0
LWPOLYLINE
5
100
100
AcDbEntity
8
0
100
AcDbPolyline
90
8
70
1
43
0.0
10
-28.914704262466376
20
15.571428174668576
10
-43.925811261396632
20
41.571428174668569
42
-0.57735026918962529
10
-42.19376045382775
20
44.571428174668561
10
-39.84704536596545
20
44.57142817466859
42
-0.26794919243112331
10
-38.114994558396567
20
43.571428174668583
10
-23.103887559466308
20
17.571428174668565
42
-0.57735026918962529
10
-24.83593836703518
20
14.571428174668579
10
-27.182653454897498
20
14.571428174668576
42
-0.26794919243112308
0
LWPOLYLINE
5
101
100
AcDbEntity
8
0
100
AcDbPolyline
90
8
70
1
43
0.0
10
-42.845738745224978
20
15.57142817466854
10
-57.856845744155258
20
41.571428174668569
42
-0.57735026918962529
10
-56.124794936586383
20
44.571428174668561
10
-53.778079848724076
20
44.57142817466859
42
-0.26794919243112308
10
-52.046029041155194
20
43.571428174668583
10
-37.034922042224927
20
17.571428174668551
42
-0.57735026918962573
10
-38.766972849793795
20
14.571428174668561
10
-41.113687937656103
20
14.57142817466854
42
-0.26794919243112308
0
LWPOLYLINE
5
102
100
AcDbEntity
8
0
100
AcDbPolyline
90
8
70
1
43
0.0
10
-56.776773227983597
20
15.57142817466854
10
-71.78788022691387
20
41.571428174668569
42
-0.57735026918962529
10
-70.055829419345002
20
44.571428174668561
10
-67.709114331482695
20
44.57142817466859
42
-0.26794919243112308
10
-65.977063523913813
20
43.571428174668583
10
-50.965956524983547
20
17.571428174668554
42
-0.57735026918962595
10
-52.698007332552415
20
14.571428174668561
10
-55.044722420414722
20
14.57142817466854
42
-0.26794919243112308
0
LWPOLYLINE
5
103
100
AcDbEntity
8
0
100
AcDbPolyline
90
8
70
1
43
0.0
10
-70.707807710742202
20
15.57142817466854
10
-85.718914709672475
20
41.571428174668569
42
-0.57735026918962595
10
-83.986863902103607
20
44.571428174668561
10
-81.640148814241343
20
44.571428174668597
42
-0.26794919243112097
10
-79.908098006672461
20
43.571428174668597
10
-64.896991007742159
20
17.571428174668547
42
-0.57735026918962529
10
-66.629041815311041
20
14.571428174668561
10
-68.975756903173334
20
14.571428174668547
42
-0.26794919243112247
0
LWPOLYLINE
5
104
100
AcDbEntity
8
0
100
AcDbPolyline
90
8
70
1
43
0.0
10
-84.638842193500835
20
15.57142817466854
10
-99.649949192431109
20
41.571428174668569
42
-0.57735026918962595
10
-97.917898384862241
20
44.571428174668561
10
-95.571183296999948
20
44.571428174668597
42
-0.2679491924311237
10
-93.839132489431051
20
43.571428174668583
10
-78.828025490500792
20
17.571428174668547
42
-0.57735026918962462
10
-80.560076298069674
20
14.571428174668561
10
-82.906791385931939
20
14.571428174668529
42
-0.2679491924311237
0
LWPOLYLINE
5
105
100
AcDbEntity
8
0
100
AcDbPolyline
90
8
70
1
43
0.0
10
-14.331691488310501
20
44.571428174668561
10
-11.984976400448204
20
44.571428174668583
42
-0.26794919243112203
10
-10.252925592879334
20
43.571428174668583
10
-7.7087514615699355
20
39.164789315938272
42
-0.13165249758739492
10
-7.4408022691388176
20
38.164789315938279
10
-7.4408022691388158
20
34.10015955287232
42
-0.76732698797896137
10
-11.172853076707698
20
33.100159552872327
10
-16.063742295879379
20
41.571428174668583
42
-0.57735026918962462
0
LWPOLYLINE
5
106
100
AcDbEntity
8
0
100
AcDbPolyline
90
6
70
1
43
0.0
10
-101.38199999999998
20
16.571428174668554
10
-101.38199999999999
20
25.041860634005957
42
-0.76732698797896182
10
-97.649949192431109
20
26.041860634005953
10
-92.759542731880131
20
17.571428174668554
42
-0.57735026918962595
10
-94.491593539448999
20
14.571428174668561
10
-99.381999999999977
20
14.571428174668561
42
-0.41421356237309503
0
LWPOLYLINE
5
107
100
AcDbEntity
8
0
100
AcDbPolyline
90
8
70
1
43
0.0
10
40.740468151326745
20
15.571428174668576
10
25.729361152396478
20
41.57142817466859
42
-0.57735026918962706
10
27.461411959965361
20
44.571428174668583
10
29.808127047827675
20
44.57142817466859
42
-0.26794919243112286
10
31.54017785539655
20
43.571428174668583
10
46.551284854326809
20
17.571428174668565
42
-0.57735026918962529
10
44.819234046757934
20
14.571428174668579
10
42.47251895889562
20
14.571428174668576
42
-0.26794919243112308
0
LWPOLYLINE
5
108
100
AcDbEntity
8
0
100
AcDbPolyline
90
8
70
1
43
0.0
10
68.602537116843976
20
15.571428174668558
10
53.591430117913731
20
41.571428174668597
42
-0.57735026918962595
10
55.323480925482613
20
44.571428174668583
10
57.670196013344885
20
44.571428174668583
42
-0.26794919243112431
10
59.402246820913774
20
43.571428174668583
10
74.413353819844033
20
17.571428174668572
42
-0.57735026918962595
10
72.681303012275166
20
14.571428174668579
10
70.334587924412858
20
14.57142817466856
42
-0.26794919243112164
0
LWPOLYLINE
5
109
100
AcDbEntity
8
0
100
AcDbPolyline
90
8
70
1
43
0.0
10
12.878399185809485
20
15.571428174668576
10
10.334225054500115
20
19.978067033398808
42
-0.13165249758739581
10
10.066275862068991
20
20.978067033398808
10
10.066275862068991
20
25.042696796464821
42
-0.76732698797896071
10
13.798326669637868
20
26.042696796464817
10
18.689215888809557
20
17.571428174668572
42
-0.57735026918962595
10
16.957165081240689
20
14.571428174668579
10
14.61044999337836
20
14.571428174668576
42
-0.26794919243112297
0
LWPOLYLINE
5
110
100
AcDbEntity
8
0
100
AcDbPolyline
90
8
70
1
43
0.0
10
82.533571599602595
20
15.571428174668558
10
67.522464600672336
20
41.571428174668597
42
-0.57735026918962318
10
69.254515408241204
20
44.571428174668583
10
71.601230496103511
20
44.571428174668583
42
-0.26794919243112431
10
73.333281303672408
20
43.571428174668583
10
88.344388302602667
20
17.571428174668572
42
-0.57735026918962595
10
86.612337495033799
20
14.571428174668579
10
84.265622407171477
20
14.57142817466856
42
-0.26794919243112164
0
LWPOLYLINE
5
111
100
AcDbEntity
8
0
100
AcDbPolyline
90
8
70
1
43
0.0
10
26.809433668568111
20
15.571428174668576
10
11.798326669637859
20
41.571428174668561
42
-0.57735026918962673
10
13.530377477206734
20
44.571428174668561
10
15.877092565069049
20
44.571428174668583
42
-0.26794919243112203
10
17.60914337263792
20
43.571428174668583
10
32.620250371568183
20
17.571428174668569
42
-0.57735026918962573
10
30.888199563999308
20
14.571428174668579
10
28.54148447613699
20
14.571428174668576
42
-0.26794919243112308
0
LWPOLYLINE
5
112
100
AcDbEntity
8
0
100
AcDbPolyline
90
10
70
1
43
0.0
10
96.464606082361229
20
15.571428174668558
10
81.453499083430955
20
41.571428174668611
42
-0.57735026918962595
10
83.185549890999866
20
44.571428174668583
10
85.532264978862145
20
44.571428174668597
42
-0.2679491924311237
10
87.264315786431027
20
43.571428174668583
10
101.11405080756884
20
19.582983446691834
42
-0.13165249758739614
10
101.38199999999998
20
18.582983446691834
10
101.38199999999998
20
16.571428174668572
42
-0.41421356237309503
10
99.381999999999977
20
14.571428174668579
10
98.196656889930111
20
14.57142817466856
42
-0.26794919243112164
0
LWPOLYLINE
5
113
100
AcDbEntity
8
0
100
AcDbPolyline
90
6
70
1
43
0.0
10
97.649949192431109
20
37.647613209757779
10
95.384533566189589
20
41.571428174668618
42
-0.57735026918962462
10
97.116584373758457
20
44.571428174668597
10
99.381999999999977
20
44.571428174668597
42
-0.41421356237309503
10
101.38199999999998
20
42.571428174668604
10
101.38199999999999
20
38.647613209757772
42
-0.76732698797896182
0
LWPOLYLINE
5
114
100
AcDbEntity
8
0
100
AcDbPolyline
90
8
70
1
43
0.0
10
54.671502634085371
20
15.571428174668576
10
39.660395635155098
20
41.57142817466859
42
-0.57735026918962706
10
41.392446442723987
20
44.571428174668583
10
43.739161530586259
20
44.571428174668583
42
-0.26794919243112431
10
45.471212338155155
20
43.571428174668583
10
60.482319337085414
20
17.571428174668572
42
-0.57735026918962595
10
58.750268529516546
20
14.571428174668579
10
56.403553441654246
20
14.571428174668576
42
-0.26794919243112308
0
LWPOLYLINE
5
115
100
AcDbEntity
8
0
100
AcDbPolyline
90
8
70
1
43
0.0
10
-14.983669779707744
20
15.571428174668576
10
-29.994776778638006
20
41.571428174668561
42
-0.57735026918962673
10
-28.262725971069127
20
44.571428174668561
10
-25.91601088320683
20
44.57142817466859
42
-0.26794919243112392
10
-24.183960075637945
20
43.571428174668583
10
-9.172853076707689
20
17.571428174668565
42
-0.57735026918962529
10
-10.904903884276562
20
14.571428174668579
10
-13.25161897213887
20
14.571428174668576
42
-0.26794919243112297
0
CIRCLE
5
116
100
AcDbEntity
8
0
100
AcDbCircle
10
50.225194667292492
20
-69.564324226313545
30
0
40
2.0500000000000007
210
-0
220
0
230
1
0
CIRCLE
5
117
100
AcDbEntity
8
0
100
AcDbCircle
10
-62.537919827016559
20
-103.39325857460625
30
0
40
2.0500000000000007
210
0
220
-0
230
1
0
CIRCLE
5
118
100
AcDbEntity
8
0
100
AcDbCircle
10
-56.381557247154518
20
-86.478791400459897
30
0
40
12.149999999999999
210
-0
220
0
230
1
0
CIRCLE
5
119
100
AcDbEntity
8
0
100
AcDbCircle
10
56.381557247154518
20
-86.478791400459897
30
0
40
12.149999999999999
210
0
220
0
230
1
0
CIRCLE
5
120
100
AcDbEntity
8
0
100
AcDbCircle
10
62.537919827016559
20
-103.39325857460625
30
0
40
2.0500000000000007
210
0
220
-0
230
1
0
CIRCLE
5
121
100
AcDbEntity
8
0
100
AcDbCircle
10
-50.225194667292492
20
-69.564324226313545
30
0
40
2.0500000000000007
210
-0
220
0
230
1
0
CIRCLE
5
122
100
AcDbEntity
8
0
100
AcDbCircle
10
-102.38199999999999
20
-90.024952300154197
30
0
40
2.0500000000000007
210
0
220
0
230
1
0
CIRCLE
5
123
100
AcDbEntity
8
0
100
AcDbCircle
10
4.0123181697984162e-16
20
-107.00000000000003
30
0
40
2.4749999999999996
210
0
220
-0
230
1
0
CIRCLE
5
124
100
AcDbEntity
8
0
100
AcDbCircle
10
102.38199999999999
20
-90.024952300154197
30
0
40
2.0500000000000007
210
-0
220
0
230
1
0
LWPOLYLINE
5
125
100
AcDbEntity
8
0
100
AcDbPolyline
90
8
70
1
43
0.0
10
113.88199999999998
20
-126.86890789954421
10
113.88199999999998
20
-53.180996700764148
10
113.88199999999998
20
58.75900329923585
10
-113.88200000000005
20
58.75900329923585
10
-113.88200000000005
20
-53.180996700764148
10
-113.88200000000005
20
-126.86890789954421
10
-106.27791959303353
20
-126.86890789954421
42
0.17060074350236326
10
106.27791959303346
20
-126.86890789954425
0
LINE
5
126
100
AcDbEntity
8
0
100
AcDbLine
10
113.88199999999998
20
-36.153347415278049
30
-1.7763568394002505e-14
11
113.88199999999998
21
52.787139817503942
31
2.2204460492503131e-14
0
LINE
5
127
100
AcDbEntity
8
0
100
AcDbLine
10
-113.88200000000005
20
52.787139817503935
30
1.7763568394002505e-14
11
-113.88200000000005
21
-36.15334741527807
31
-2.2204460492503131e-14
0
ENDSEC
0
SECTION
2
OBJECTS
0
DICTIONARY
5
C
100
AcDbDictionary
3
ACAD_GROUP
350
D
3
ACAD_MLINESTYLE
350
17
0
DICTIONARY
5
D
100
AcDbDictionary
0
DICTIONARY
5
1A
330
C
100
AcDbDictionary
0
DICTIONARY
5
17
100
AcDbDictionary
0
ENDSEC
0
EOF
