0
SECTION
2
HEADER
9
$INSUNITS
70
4
9
$ACADVER
1
AC1014
9
$HANDSEED
5
FFFF
0
ENDSEC
0
SECTION
2
TABLES
0
TABLE
2
VPORT
5
8
100
AcDbSymbolTable
0
ENDTAB
0
TABLE
2
LTYPE
5
5
100
AcDbSymbolTable
0
LTYPE
5
14
100
AcDbSymbolTableRecord
100
AcDbLinetypeTableRecord
2
BYBLOCK
70
0
0
LTYPE
5
15
100
AcDbSymbolTableRecord
100
AcDbLinetypeTableRecord
2
BYLAYER
70
0
0
ENDTAB
0
TABLE
2
LAYER
5
2
100
AcDbSymbolTable
70
2
0
LAYER
5
50
100
AcDbSymbolTableRecord
100
AcDbLayerTableRecord
2
0
70
0
6
CONTINUOUS
0
ENDTAB
0
TABLE
2
STYLE
5
3
100
AcDbSymbolTable
70
1
0
STYLE
5
11
100
AcDbSymbolTableRecord
100
AcDbTextStyleTableRecord
2
STANDARD
70
0
0
ENDTAB
0
TABLE
2
VIEW
5
6
100
AcDbSymbolTable
70
0
0
ENDTAB
0
TABLE
2
UCS
5
7
100
AcDbSymbolTable
70
0
0
ENDTAB
0
TABLE
2
APPID
5
9
100
AcDbSymbolTable
70
2
0
APPID
5
12
100
AcDbSymbolTableRecord
100
AcDbRegAppTableRecord
2
ACAD
70
0
0
ENDTAB
0
TABLE
2
DIMSTYLE
5
A
100
AcDbSymbolTable
70
1
0
ENDTAB
0
TABLE
2
BLOCK_RECORD
5
1
100
AcDbSymbolTable
70
1
0
BLOCK_RECORD
5
1F
100
AcDbSymbolTableRecord
100
AcDbBlockTableRecord
2
*MODEL_SPACE
0
BLOCK_RECORD
5
1B
100
AcDbSymbolTableRecord
100
AcDbBlockTableRecord
2
*PAPER_SPACE
0
ENDTAB
0
ENDSEC
0
SECTION
2
BLOCKS
0
BLOCK
5
20
100
AcDbEntity
100
AcDbBlockBegin
2
*MODEL_SPACE
0
ENDBLK
5
21
100
AcDbEntity
100
AcDbBlockEnd
0
BLOCK
5
1C
100
AcDbEntity
100
AcDbBlockBegin
2
*PAPER_SPACE
0
ENDBLK
5
1D
100
AcDbEntity
100
AcDbBlockEnd
0
ENDSEC
0
SECTION
2
ENTITIES
0
CIRCLE
5
100
100
AcDbEntity
8
0
100
AcDbCircle
10
100.88155724715472
20
65.521208599540287
30
0
40
2
210
0
220
-0
230
1
0
CIRCLE
5
101
100
AcDbEntity
8
0
100
AcDbCircle
10
100.88155724715472
20
-25.47879140045973
30
0
40
2
210
0
220
-0
230
1
0
CIRCLE
5
102
100
AcDbEntity
8
0
100
AcDbCircle
10
-97.381999999999977
20
31.699999999999989
30
0
40
1.9999999999999929
210
0
220
-0
230
1
0
CIRCLE
5
103
100
AcDbEntity
8
0
100
AcDbCircle
10
-97.381999999999948
20
-15.700000000000005
30
0
40
1.9999999999999929
210
0
220
-0
230
1
0
CIRCLE
5
104
100
AcDbEntity
8
0
100
AcDbCircle
10
-6.6613381477509392e-15
20
2.2204460492503131e-14
30
0
40
2.5
210
0
220
-0
230
1
0
CIRCLE
5
105
100
AcDbEntity
8
0
100
AcDbCircle
10
76.38155724715466
20
20.521208599540124
30
0
40
2.400000000000011
210
0
220
-0
230
1
0
SPLINE
5
106
100
AcDbEntity
8
0
100
AcDbSpline
70
0
71
3
72
29
73
25
74
0
42
0.000000001
43
0.0000000001
44
0.0000000001
40
-8.1193944395104199e-06
40
-8.1193944395104199e-06
40
-8.1193944395104199e-06
40
-8.1193944395104199e-06
40
0
40
0
40
0
40
0.07459839171375339
40
0.07459839171375339
40
0.07459839171375339
40
0.14949820821961962
40
0.14949820821961962
40
0.14949820821961962
40
0.2826903790766998
40
0.2826903790766998
40
0.2826903790766998
40
0.41618482803121903
40
0.41618482803121903
40
0.41618482803121903
40
0.49141057878155164
40
0.49141057878155164
40
0.49141057878155164
40
0.56633759228639891
40
0.56633759228639891
40
0.56633759228639891
40
0.5663487249398409
40
0.5663487249398409
40
0.5663487249398409
40
0.5663487249398409
10
-26.164904294923964
20
4.18924780690595
30
0
10
-26.164922856207731
20
4.1892663893034046
30
0
10
-26.164941417322424
20
4.1892849715315812
30
0
10
-26.164959978377162
20
4.1893035536997409
30
0
10
-26.490410644583584
20
4.5151244239349984
30
0
10
-26.851048259120951
20
4.8043903007366335
30
0
10
-27.238431272788954
20
5.0508593714368368
30
0
10
-27.627971063360338
20
5.2987006726694252
30
0
10
-28.043892055255412
20
5.5030353419974336
30
0
10
-28.478632991043153
20
5.6599769175302539
30
0
10
-29.251908593388723
20
5.9391295837803355
30
0
10
-30.075865063229262
20
6.0650955847780628
30
0
10
-30.903855587165378
20
6.0270697361372338
30
0
10
-31.733507315493785
20
5.988967595914608
30
0
10
-32.552269222945959
20
5.7867418151188605
30
0
10
-33.310526057025108
20
5.4280609231880241
30
0
10
-33.738000946084178
20
5.2258509758527669
30
0
10
-34.142415151554488
20
4.9758056438452734
30
0
10
-34.515977814114819
20
4.6818020736207435
30
0
10
-34.887919925753231
20
4.3890739192889789
30
0
10
-35.226569967499245
20
4.0548437043598655
30
0
10
-35.524999906600279
20
3.6851769383946387
30
0
10
-35.525023215454759
20
3.6851480655915991
30
0
10
-35.525046524192241
20
3.6851191929334721
30
0
10
-35.525069832812747
20
3.6850903204202581
30
0
0
LINE
5
107
100
AcDbEntity
8
0
100
AcDbLine
10
-26.164904294923964
20
4.18924780690595
30
0
11
-25.880614550465964
21
3.9046204123251371
31
0
0
SPLINE
5
108
100
AcDbEntity
8
0
100
AcDbSpline
70
0
71
3
72
92
73
88
74
0
42
0.000000001
43
0.0000000001
44
0.0000000001
40
-1.0000139808659536
40
-1.0000139808659536
40
-1.0000139808659536
40
-1.0000139808659536
40
-1
40
-1
40
-1
40
-0.9374081693629851
40
-0.9374081693629851
40
-0.9374081693629851
40
-0.87499999999999778
40
-0.87499999999999778
40
-0.87499999999999778
40
-0.81263591510782296
40
-0.81263591510782296
40
-0.81263591510782296
40
-0.78133338902015914
40
-0.78133338902015914
40
-0.78133338902015914
40
-0.74999999999999545
40
-0.74999999999999545
40
-0.74999999999999545
40
-0.71871001632465203
40
-0.71871001632465203
40
-0.71871001632465203
40
-0.70309618328811152
40
-0.70309618328811152
40
-0.70309618328811152
40
-0.68749999999999556
40
-0.68749999999999556
40
-0.68749999999999556
40
-0.65623242276063798
40
-0.65623242276063798
40
-0.65623242276063798
40
-0.62499999999999567
40
-0.62499999999999567
40
-0.62499999999999567
40
-0.56262472587044132
40
-0.56262472587044132
40
-0.56262472587044132
40
-0.49999999999999578
40
-0.49999999999999578
40
-0.49999999999999578
40
-0.48432909825747772
40
-0.48432909825747772
40
-0.48432909825747772
40
-0.46868048384482031
40
-0.46868048384482031
40
-0.46868048384482031
40
-0.43749999999999756
40
-0.43749999999999756
40
-0.43749999999999756
40
-0.40627204352558444
40
-0.40627204352558444
40
-0.40627204352558444
40
-0.37499999999999933
40
-0.37499999999999933
40
-0.37499999999999933
40
-0.31263769794265162
40
-0.31263769794265162
40
-0.31263769794265162
40
-0.2813735446292745
40
-0.2813735446292745
40
-0.2813735446292745
40
-0.24999999999999956
40
-0.24999999999999956
40
-0.24999999999999956
40
-0.2343020881795376
40
-0.2343020881795376
40
-0.2343020881795376
40
-0.21864396215053961
40
-0.21864396215053961
40
-0.21864396215053961
40
-0.1874086599958634
40
-0.1874086599958634
40
-0.1874086599958634
40
-0.15621875527241821
40
-0.15621875527241821
40
-0.15621875527241821
40
-0.12499999999999978
40
-0.12499999999999978
40
-0.12499999999999978
40
-0.062634184516375216
40
-0.062634184516375216
40
-0.062634184516375216
40
0
40
0
40
0
40
9.3295930765238673e-06
40
9.3295930765238673e-06
40
9.3295930765238673e-06
40
9.3295930765238673e-06
10
-25.445558971536538
20
-4.5167841593102338
30
0
10
-25.445544430412262
20
-4.516766192036628
30
0
10
-25.445529889109576
20
-4.516748224542587
30
0
10
-25.445515347735789
20
-4.5167302569606846
30
0
10
-25.321882756425328
20
-4.3639676127543234
30
0
10
-25.205075892927734
20
-4.2049900290113094
30
0
10
-25.096339093883458
20
-4.041524975408314
30
0
10
-24.98790162312666
20
-3.8785099048376215
30
0
10
-24.887072350467943
20
-3.7104221839363296
30
0
10
-24.794698928308499
20
-3.538947039127136
30
0
10
-24.702350330042989
20
-3.367517975546841
30
0
10
-24.618268319259087
20
-3.1923790482036036
30
0
10
-24.542891418591889
20
-3.0151037526936282
30
0
10
-24.505007764193294
20
-2.9260070139174168
30
0
10
-24.469163275842316
20
-2.836010077109651
30
0
10
-24.435429424810767
20
-2.7452978538759232
30
0
10
-24.401663342911263
20
-2.654498960025065
30
0
10
-24.369922363969195
20
-2.5627426092810039
30
0
10
-24.340291178324893
20
-2.4702126124662209
30
0
10
-24.310689157766724
20
-2.3777736901484152
30
0
10
-24.283101971771615
20
-2.28428033600041
30
0
10
-24.257618464654939
20
-2.1898594949666372
30
0
10
-24.244856567317381
20
-2.1425744382324048
30
0
10
-24.23267294045737
20
-2.0952489782825121
30
0
10
-24.22100957194802
20
-2.0476572097640204
30
0
10
-24.209387339619045
20
-2.0002332952898056
30
0
10
-24.198323825947639
20
-1.9527121866994099
30
0
10
-24.187814681971194
20
-1.9050750966378038
30
0
10
-24.166830462896986
20
-1.8099553479548458
30
0
10
-24.148105367997253
20
-1.7145821918900568
30
0
10
-24.131684473220304
20
-1.6194999839910285
30
0
10
-24.115289843252864
20
-1.5245698576996878
30
0
10
-24.101019191817134
20
-1.4289273968181082
30
0
10
-24.088973502034165
20
-1.333161609728877
30
0
10
-24.064903026068404
20
-1.1417962236027599
30
0
10
-24.049686124464408
20
-0.94977830312310152
30
0
10
-24.043235581271162
20
-0.7584344516148438
30
0
10
-24.036754905575414
20
-0.56619677319782513
30
0
10
-24.039081483259043
20
-0.37333266873366788
30
0
10
-24.050218531419155
20
-0.18108653020075183
30
0
10
-24.05302430157219
20
-0.13265372558528382
30
0
10
-24.056386220983164
20
-0.084346550587029528
30
0
10
-24.060295069386477
20
-0.036153911798075776
30
0
10
-24.064215079699306
20
0.012176343449536451
30
0
10
-24.068687062648987
20
0.060412470313052746
30
0
10
-24.073735028274157
20
0.10876341804604883
30
0
10
-24.083757498836587
20
0.20476168473439343
30
0
10
-24.095995260712868
20
0.30059690806932787
30
0
10
-24.110394138478654
20
0.39590166677548655
30
0
10
-24.124793306571259
20
0.49120834712631922
30
0
10
-24.141338348739161
20
0.58585612020074518
30
0
10
-24.159825412841688
20
0.67917394087611094
30
0
10
-24.178340537176016
20
0.77263340219625731
30
0
10
-24.199051764087457
20
0.86601274877773304
30
0
10
-24.22182197049418
20
0.95865360673558453
30
0
10
-24.267319870902742
20
1.1437623604218692
30
0
10
-24.321148546786517
20
1.3265135927972889
30
0
10
-24.383055112636107
20
1.5062748771694694
30
0
10
-24.414092894663398
20
1.5964008837524266
30
0
10
-24.447173270751115
20
1.6858124604932667
30
0
10
-24.482266976256287
20
1.7744301766120285
30
0
10
-24.517496725534528
20
1.8633914269426288
30
0
10
-24.554740369530407
20
1.9515135923519675
30
0
10
-24.593969010144065
20
2.0387403332805909
30
0
10
-24.613652449414914
20
2.0825073930360185
30
0
10
-24.633835494232272
20
2.1260486974318464
30
0
10
-24.654579462673574
20
2.1694867755224343
30
0
10
-24.675242701921405
20
2.212755805871728
30
0
10
-24.696397026913765
20
2.2557833146618824
30
0
10
-24.718042345730652
20
2.2985661469154151
30
0
10
-24.7611453993105
20
2.3837610440902686
30
0
10
-24.80610192469889
20
2.4678152183421669
30
0
10
-24.852917338257736
20
2.5507658198485017
30
0
10
-24.899636118247681
20
2.6335451996981867
30
0
10
-24.948122087250958
20
2.7150759598161143
30
0
10
-24.998333273864581
20
2.7953371885385097
30
0
10
-25.04859246271268
20
2.8756751475391509
30
0
10
-25.1005398935126
20
2.9546766937261388
30
0
10
-25.15413164788411
20
3.0323258735451422
30
0
10
-25.261304923402896
20
3.1876094062479163
30
0
10
-25.375431441423068
20
3.3380615034190675
30
0
10
-25.49663748015405
20
3.4836707515141607
30
0
10
-25.61839357084693
20
3.6299407971522109
30
0
10
-25.746372179927526
20
3.7702148008196685
30
0
10
-25.880583210807238
20
3.904589034556861
30
0
10
-25.880593657679313
20
3.9045994941325066
30
0
10
-25.880604104232226
20
3.9046099533885985
30
0
10
-25.880614550465964
20
3.9046204123251371
30
0
0
ARC
5
109
100
AcDbEntity
8
0
100
AcDbCircle
10
-56.381557247154525
20
20.521208599540127
30
0
40
39.798706897351352
210
-0
220
0
230
1
100
AcDbArc
50
308.98491323946388
51
321.01508680998569
0
SPLINE
5
110
100
AcDbEntity
8
0
100
AcDbSpline
70
0
71
3
72
89
73
85
74
0
42
0.000000001
43
0.0000000001
44
0.0000000001
40
-1
40
-1
40
-1
40
-1
40
-0.96864092161167181
40
-0.96864092161167181
40
-0.96864092161167181
40
-0.93733920315126851
40
-0.93733920315126851
40
-0.93733920315126851
40
-0.90611803238508226
40
-0.90611803238508226
40
-0.90611803238508226
40
-0.87499999999999956
40
-0.87499999999999956
40
-0.87499999999999956
40
-0.81258019048320085
40
-0.81258019048320085
40
-0.81258019048320085
40
-0.74999999999999911
40
-0.74999999999999911
40
-0.74999999999999911
40
-0.71873286972606187
40
-0.71873286972606187
40
-0.71873286972606187
40
-0.6874222940749628
40
-0.6874222940749628
40
-0.6874222940749628
40
-0.65615082695418037
40
-0.65615082695418037
40
-0.65615082695418037
40
-0.62499999999999878
40
-0.62499999999999878
40
-0.62499999999999878
40
-0.59386719292712875
40
-0.59386719292712875
40
-0.59386719292712875
40
-0.56262608719144158
40
-0.56262608719144158
40
-0.56262608719144158
40
-0.49999999999999833
40
-0.49999999999999833
40
-0.49999999999999833
40
-0.46869127080342871
40
-0.46869127080342871
40
-0.46869127080342871
40
-0.45304535569856025
40
-0.45304535569856025
40
-0.45304535569856025
40
-0.43740841899611521
40
-0.43740841899611521
40
-0.43740841899611521
40
-0.40617143076129192
40
-0.40617143076129192
40
-0.40617143076129192
40
-0.374999999999998
40
-0.374999999999998
40
-0.374999999999998
40
-0.31262370999118105
40
-0.31262370999118105
40
-0.31262370999118105
40
-0.24999999999999772
40
-0.24999999999999772
40
-0.24999999999999772
40
-0.23432624123662699
40
-0.23432624123662699
40
-0.23432624123662699
40
-0.21868483782504772
40
-0.21868483782504772
40
-0.21868483782504772
40
-0.18749999999999828
40
-0.18749999999999828
40
-0.18749999999999828
40
-0.1562657402988642
40
-0.1562657402988642
40
-0.1562657402988642
40
-0.12499999999999886
40
-0.12499999999999886
40
-0.12499999999999886
40
-0.062628627275777324
40
-0.062628627275777324
40
-0.062628627275777324
40
0
40
0
40
0
40
1.4916857797479292e-05
40
1.4916857797479292e-05
40
1.4916857797479292e-05
40
1.4916857797479292e-05
10
-39.764976699000989
20
-9.9797264666488879
30
0
10
-39.697513583346684
20
-10.047110122860969
30
0
10
-39.628488677760089
20
-10.112987083524274
30
0
10
-39.558027234238928
20
-10.177237078783621
30
0
10
-39.487698416988678
20
-10.241366139289841
30
0
10
-39.415789936572139
20
-10.304009946274714
30
0
10
-39.342421522822882
20
-10.365041259188953
30
0
10
-39.269266119533917
20
-10.425895379938444
30
0
10
-39.194448188561594
20
-10.485319649361301
30
0
10
-39.118164616365114
20
-10.543111074460681
30
0
10
-39.042068651621385
20
-10.600760370635815
30
0
10
-38.964698975320104
20
-10.6566544715948
30
0
10
-38.885945745224994
20
-10.710854590362658
30
0
10
-38.728900980077782
20
-10.818937076789812
30
0
10
-38.567358507066857
20
-10.919557028430306
30
0
10
-38.403150082373365
20
-11.011918599218632
30
0
10
-38.238612528960886
20
-11.104465293550623
30
0
10
-38.068875963293152
20
-11.190142106085432
30
0
10
-37.895688961133622
20
-11.267907569917632
30
0
10
-37.808999361196278
20
-11.306833452717695
30
0
10
-37.721276391224478
20
-11.343862350156829
30
0
10
-37.632749135239941
20
-11.378884756621881
30
0
10
-37.544026572940751
20
-11.413984428524124
30
0
10
-37.454271298006383
20
-11.447157914973099
30
0
10
-37.36363008030488
20
-11.478323554456839
30
0
10
-37.272614919782512
20
-11.509617768638032
30
0
10
-37.181143392151647
20
-11.53874992334117
30
0
10
-37.088382220118554
20
-11.565955386653988
30
0
10
-36.996466254210212
20
-11.592912963661428
30
0
10
-36.90376583135707
20
-11.617824225410027
30
0
10
-36.810471644174044
20
-11.640616932654568
30
0
10
-36.717284534577402
20
-11.663383479768953
30
0
10
-36.623816687667848
20
-11.683961490384551
30
0
10
-36.530280164703413
20
-11.702346681364993
30
0
10
-36.436415843436322
20
-11.720796303160348
30
0
10
-36.342212041195722
20
-11.737090858804073
30
0
10
-36.247873259497808
20
-11.751214113767022
30
0
10
-36.058976309486262
20
-11.77949346758866
30
0
10
-35.867980948830002
20
-11.79927696519834
30
0
10
-35.676437295719495
20
-11.810293056785298
30
0
10
-35.580418019678447
20
-11.815815333936223
30
0
10
-35.484031638990778
20
-11.819152713227389
30
0
10
-35.387355717781766
20
-11.820271670346393
30
0
10
-35.338940863074143
20
-11.8208320389021
30
0
10
-35.290479634259654
20
-11.820834852427335
30
0
10
-35.241947332074226
20
-11.82027739962539
30
0
10
-35.193322638059236
20
-11.819718885590367
30
0
10
-35.144773637754881
20
-11.818600598501323
30
0
10
-35.096072947435331
20
-11.81691339416129
30
0
10
-34.999116976931994
20
-11.813554416431167
30
0
10
-34.902304001420028
20
-11.807959621781325
30
0
10
-34.805858343969255
20
-11.800158065471006
30
0
10
-34.709616976039491
20
-11.79237303428213
30
0
10
-34.613540036759183
20
-11.782375599165686
30
0
10
-34.517798932174536
20
-11.770186956045439
30
0
10
-34.326323909648856
20
-11.745810584724746
30
0
10
-34.136101840352453
20
-11.712649260739383
30
0
10
-33.948209993019766
20
-11.670971124597504
30
0
10
-33.759439663258767
20
-11.629098123639706
30
0
10
-33.572192894654108
20
-11.57844227072728
30
0
10
-33.38747576929174
20
-11.519204856588686
30
0
10
-33.3409386980166
20
-11.504280762471719
30
0
10
-33.294627537132918
20
-11.488830489622174
30
0
10
-33.248508332153939
20
-11.47284966758825
30
0
10
-33.202322576518966
20
-11.456845785005232
30
0
10
-33.156280019297114
20
-11.440291771447665
30
0
10
-33.110253560207525
20
-11.42313302195257
30
0
10
-33.018687346677915
20
-11.388996967360354
30
0
10
-32.927913961943013
20
-11.352731575813264
30
0
10
-32.83820796888191
20
-11.314460374534164
30
0
10
-32.748469580666104
20
-11.276175352534242
30
0
10
-32.659828817811857
20
-11.235891701690701
30
0
10
-32.572784769729594
20
-11.193906304522498
30
0
10
-32.48564777236637
20
-11.151876073588344
30
0
10
-32.399175195706526
20
-11.107689225935493
30
0
10
-32.313877068683297
20
-11.06158987694522
30
0
10
-32.143447652292338
20
-10.969481346329095
30
0
10
-31.977151452992128
20
-10.869470503179826
30
0
10
-31.81559394338823
20
-10.761859270627491
30
0
10
-31.653340247222385
20
-10.653784317792494
30
0
10
-31.495805554813799
20
-10.537999804459076
30
0
10
-31.343621575796167
20
-10.41483587764793
30
0
10
-31.343602537656924
20
-10.414820469902626
30
0
10
-31.343583499572464
20
-10.414805062201655
30
0
10
-31.343564461542787
20
-10.41478965454502
30
0
0
LINE
5
111
100
AcDbEntity
8
0
100
AcDbLine
10
-39.764976699000989
20
-9.9797264666488879
30
0
11
-40.049596476498841
21
-9.6954443307139879
31
0
0
SPLINE
5
112
100
AcDbEntity
8
0
100
AcDbSpline
70
0
71
3
72
29
73
25
74
0
42
0.000000001
43
0.0000000001
44
0.0000000001
40
-1.092547776718632e-05
40
-1.092547776718632e-05
40
-1.092547776718632e-05
40
-1.092547776718632e-05
40
0
40
0
40
0
40
0.074880270460234738
40
0.074880270460234738
40
0.074880270460234738
40
0.1498095758539485
40
0.1498095758539485
40
0.1498095758539485
40
0.28357221669439769
40
0.28357221669439769
40
0.28357221669439769
40
0.41698878393751521
40
0.41698878393751521
40
0.41698878393751521
40
0.49165965777742793
40
0.49165965777742793
40
0.49165965777742793
40
0.56603792886901805
40
0.56603792886901805
40
0.56603792886901805
40
0.5660459766998962
40
0.5660459766998962
40
0.5660459766998962
40
0.5660459766998962
10
-39.545439052164824
20
-0.33527888281188634
30
0
10
-39.54546738907213
20
-0.3353017590101548
30
0
10
-39.545495725919849
20
-0.33532463516030897
30
0
10
-39.5455240626709
20
-0.335347511232435
30
0
10
-39.915006333531814
20
-0.63362811020916987
30
0
10
-40.249043502364749
20
-0.97203929661255684
30
0
10
-40.54166688836645
20
-1.3437563684046363
30
0
10
-40.834531035934745
20
-1.7157792776274099
30
0
10
-41.083857759776251
20
-2.1184860563798993
30
0
10
-41.285756622619033
20
-2.54422082797034
30
0
10
-41.645683149461235
20
-3.3031812081178047
30
0
10
-41.849237971502987
20
-4.1246332394669381
30
0
10
-41.887426185325168
20
-4.9566629852413726
30
0
10
-41.92556040867732
20
-5.7875164079423138
30
0
10
-41.79853789562322
20
-6.6137016514193103
30
0
10
-41.517974347950627
20
-7.3882175153119096
30
0
10
-41.36101830240154
20
-7.8215059742726547
30
0
10
-41.156879534447299
20
-8.2362329966325536
30
0
10
-40.909461776700326
20
-8.6246606975555835
30
0
10
-40.663372332951695
20
-9.0110030430975563
30
0
10
-40.374697158824375
20
-9.3707131682992344
30
0
10
-40.049651762825292
20
-9.6953891072277578
30
0
10
-40.049633334049808
20
-9.6954075150565018
30
0
10
-40.049614905274325
20
-9.695425922885244
30
0
10
-40.049596476498841
20
-9.6954443307139879
30
0
0
ARC
5
113
100
AcDbEntity
8
0
100
AcDbCircle
10
-56.381557247154525
20
20.521208599540127
30
0
40
26.803879308360749
210
0
220
0
230
1
100
AcDbArc
50
308.91173534563035
51
321.0882644231213
0
CIRCLE
5
114
100
AcDbEntity
8
0
100
AcDbCircle
10
36.381557247154504
20
20.521208599540106
30
0
40
2.0000000000000018
210
0
220
-0
230
1
0
CIRCLE
5
115
100
AcDbEntity
8
0
100
AcDbCircle
10
-76.381557247154575
20
20.521208599540124
30
0
40
2.0000000000000018
210
0
220
-0
230
1
0
CIRCLE
5
116
100
AcDbEntity
8
0
100
AcDbCircle
10
56.381557247154525
20
40.521208599540145
30
0
40
2.4000000000000021
210
0
220
-0
230
1
0
CIRCLE
5
117
100
AcDbEntity
8
0
100
AcDbCircle
10
-56.381557247154525
20
40.521208599540145
30
0
40
2.0000000000000018
210
0
220
-0
230
1
0
CIRCLE
5
118
100
AcDbEntity
8
0
100
AcDbCircle
10
-36.381557247154504
20
20.521208599540106
30
0
40
2.0000000000000018
210
0
220
-0
230
1
0
CIRCLE
5
119
100
AcDbEntity
8
0
100
AcDbCircle
10
-56.381557247154547
20
0.52120859954008836
30
0
40
2.0000000000000018
210
0
220
-0
230
1
0
CIRCLE
5
120
100
AcDbEntity
8
0
100
AcDbCircle
10
56.381557247154532
20
20.521208599540117
30
0
40
10.500000000000007
210
0
220
-0
230
1
0
CIRCLE
5
121
100
AcDbEntity
8
0
100
AcDbCircle
10
-56.381557247154525
20
20.521208599540127
30
0
40
10.499999999999998
210
0
220
-0
230
1
0
ARC
5
122
100
AcDbEntity
8
0
100
AcDbCircle
10
56.381557247154532
20
20.521208599540117
30
0
40
39.798706896551877
210
0
220
0
230
1
100
AcDbArc
50
218.98491319055239
51
231.01508676687493
0
SPLINE
5
123
100
AcDbEntity
8
0
100
AcDbSpline
70
0
71
3
72
92
73
88
74
0
42
0.000000001
43
0.0000000001
44
0.0000000001
40
-9.3294441414136629e-06
40
-9.3294441414136629e-06
40
-9.3294441414136629e-06
40
-9.3294441414136629e-06
40
0
40
0
40
0
40
0.062634184516375216
40
0.062634184516375216
40
0.062634184516375216
40
0.12499999999999978
40
0.12499999999999978
40
0.12499999999999978
40
0.15621875527241821
40
0.15621875527241821
40
0.15621875527241821
40
0.1874086599958634
40
0.1874086599958634
40
0.1874086599958634
40
0.21864396215053961
40
0.21864396215053961
40
0.21864396215053961
40
0.2343020881795376
40
0.2343020881795376
40
0.2343020881795376
40
0.24999999999999956
40
0.24999999999999956
40
0.24999999999999956
40
0.2813735446292745
40
0.2813735446292745
40
0.2813735446292745
40
0.31263769794265162
40
0.31263769794265162
40
0.31263769794265162
40
0.37499999999999933
40
0.37499999999999933
40
0.37499999999999933
40
0.40627204352558444
40
0.40627204352558444
40
0.40627204352558444
40
0.43749999999999756
40
0.43749999999999756
40
0.43749999999999756
40
0.46868048384482031
40
0.46868048384482031
40
0.46868048384482031
40
0.48432909825747772
40
0.48432909825747772
40
0.48432909825747772
40
0.49999999999999578
40
0.49999999999999578
40
0.49999999999999578
40
0.56262472587044132
40
0.56262472587044132
40
0.56262472587044132
40
0.62499999999999567
40
0.62499999999999567
40
0.62499999999999567
40
0.65623242276063798
40
0.65623242276063798
40
0.65623242276063798
40
0.68749999999999556
40
0.68749999999999556
40
0.68749999999999556
40
0.70309618328811152
40
0.70309618328811152
40
0.70309618328811152
40
0.71871001632465203
40
0.71871001632465203
40
0.71871001632465203
40
0.74999999999999545
40
0.74999999999999545
40
0.74999999999999545
40
0.78133338902015914
40
0.78133338902015914
40
0.78133338902015914
40
0.81263591510782296
40
0.81263591510782296
40
0.81263591510782296
40
0.87499999999999778
40
0.87499999999999778
40
0.87499999999999778
40
0.9374081693629851
40
0.9374081693629851
40
0.9374081693629851
40
1
40
1
40
1
40
1.0000139808893787
40
1.0000139808893787
40
1.0000139808893787
40
1.0000139808893787
10
25.880614550116956
20
3.9046204119756855
30
0
10
25.880604103749569
20
3.904609952905338
30
0
10
25.880593657372799
20
3.9045994938256028
30
0
10
25.880583210986657
20
3.90458903473648
30
0
10
25.746372179927505
20
3.7702148008196308
30
0
10
25.618393570846891
20
3.6299407971521491
30
0
10
25.496637480153986
20
3.4836707515140644
30
0
10
25.375431441423078
20
3.3380615034190715
30
0
10
25.261304923402882
20
3.1876094062478777
30
0
10
25.15413164788411
20
3.0323258735451244
30
0
10
25.100539893512661
20
2.954676693726201
30
0
10
25.04859246271274
20
2.8756751475392428
30
0
10
24.998333273864542
20
2.7953371885384315
30
0
10
24.948122087250972
20
2.7150759598161183
30
0
10
24.899636118247681
20
2.6335451996981711
30
0
10
24.852917338257736
20
2.5507658198484862
30
0
10
24.80610192469889
20
2.467815218342142
30
0
10
24.761145399310479
20
2.3837610440902166
30
0
10
24.718042345730549
20
2.298566146915185
30
0
10
24.696397026913907
20
2.2557833146621484
30
0
10
24.675242701921498
20
2.2127558058718959
30
0
10
24.654579462673532
20
2.1694867755223135
30
0
10
24.633835494232272
20
2.1260486974318287
30
0
10
24.613652449414914
20
2.0825073930360007
30
0
10
24.593969010144065
20
2.0387403332805731
30
0
10
24.554740369530343
20
1.9515135923518021
30
0
10
24.517496725534507
20
1.8633914269425313
30
0
10
24.482266976256383
20
1.7744301766122406
30
0
10
24.44717327075114
20
1.685812460493294
30
0
10
24.414092894663423
20
1.5964008837524819
30
0
10
24.383055112636072
20
1.5062748771693428
30
0
10
24.321148546786535
20
1.3265135927973248
30
0
10
24.267319870902732
20
1.1437623604218363
30
0
10
24.221821970494155
20
0.95865360673544553
30
0
10
24.199051764087493
20
0.86601274877784595
30
0
10
24.178340537176041
20
0.77263340219637655
30
0
10
24.159825412841688
20
0.67917394087609317
30
0
10
24.141338348739154
20
0.58585612020071109
30
0
10
24.124793306571256
20
0.49120834712627548
30
0
10
24.110394138478654
20
0.39590166677546879
30
0
10
24.095995260712868
20
0.30059690806931011
30
0
10
24.083757498836587
20
0.20476168473437567
30
0
10
24.073735028274157
20
0.10876341804603107
30
0
10
24.068687062648987
20
0.060412470313034983
30
0
10
24.064215079699306
20
0.012176343449518687
30
0
10
24.060295069386477
20
-0.03615391179809354
30
0
10
24.056386220983164
20
-0.084346550587047292
30
0
10
24.05302430157219
20
-0.13265372558528746
30
0
10
24.050218531419159
20
-0.18108653020073476
30
0
10
24.039081483259039
20
-0.37333266873376669
30
0
10
24.036754905575428
20
-0.56619677319788764
30
0
10
24.043235581271158
20
-0.75843445161472522
30
0
10
24.049686124464419
20
-0.94977830312307288
30
0
10
24.064903026068393
20
-1.1417962236026804
30
0
10
24.088973502034165
20
-1.3331616097288947
30
0
10
24.10101919181713
20
-1.4289273968180283
30
0
10
24.115289843252828
20
-1.524569857699517
30
0
10
24.131684473220307
20
-1.6194999839910862
30
0
10
24.148105367997253
20
-1.7145821918900852
30
0
10
24.166830462896996
20
-1.8099553479548809
30
0
10
24.187814681971183
20
-1.905075096637767
30
0
10
24.198323825947639
20
-1.9527121866994277
30
0
10
24.209387339619081
20
-2.0002332952899891
30
0
10
24.221009571948144
20
-2.0476572097645285
30
0
10
24.232672940457327
20
-2.0952489782823691
30
0
10
24.244856567317381
20
-2.1425744382324226
30
0
10
24.257618464654939
20
-2.189859494966655
30
0
10
24.283101971771671
20
-2.2842803360006325
30
0
10
24.310689157766767
20
-2.3777736901485351
30
0
10
24.34029117832479
20
-2.4702126124659256
30
0
10
24.369922363969195
20
-2.5627426092810217
30
0
10
24.401663342911263
20
-2.6544989600250828
30
0
10
24.435429424810767
20
-2.7452978538759409
30
0
10
24.469163275842291
20
-2.8360100771095595
30
0
10
24.505007764193209
20
-2.9260070139172232
30
0
10
24.542891418591889
20
-3.0151037526936459
30
0
10
24.618268319259087
20
-3.1923790482036214
30
0
10
24.702350330042989
20
-3.3675179755468587
30
0
10
24.794698928308499
20
-3.5389470391271538
30
0
10
24.887072350467921
20
-3.7104221839362901
30
0
10
24.987901623126593
20
-3.8785099048375393
30
0
10
25.096339093883458
20
-4.0415249754083318
30
0
10
25.205075892927734
20
-4.2049900290113271
30
0
10
25.321882756425346
20
-4.3639676127543607
30
0
10
25.445515347735842
20
-4.516730256960761
30
0
10
25.445529888967723
20
-4.5167482243673227
30
0
10
25.44554443028526
20
-4.5167661918797233
30
0
10
25.445558971771696
20
-4.5167841596008156
30
0
0
LINE
5
124
100
AcDbEntity
8
0
100
AcDbLine
10
25.880614550116956
20
3.9046204119756855
30
0
11
26.164904295226133
21
4.189247807208444
31
0
0
SPLINE
5
125
100
AcDbEntity
8
0
100
AcDbSpline
70
0
71
3
72
29
73
25
74
0
42
0.000000001
43
0.0000000001
44
0.0000000001
40
-0.56634872514573309
40
-0.56634872514573309
40
-0.56634872514573309
40
-0.56634872514573309
40
-0.56633759228639891
40
-0.56633759228639891
40
-0.56633759228639891
40
-0.49141057878155164
40
-0.49141057878155164
40
-0.49141057878155164
40
-0.41618482803121903
40
-0.41618482803121903
40
-0.41618482803121903
40
-0.2826903790766998
40
-0.2826903790766998
40
-0.2826903790766998
40
-0.14949820821961962
40
-0.14949820821961962
40
-0.14949820821961962
40
-0.07459839171375339
40
-0.07459839171375339
40
-0.07459839171375339
40
0
40
0
40
0
40
8.1193624417650547e-06
40
8.1193624417650547e-06
40
8.1193624417650547e-06
40
8.1193624417650547e-06
10
35.525069834115797
20
3.6850903188061377
30
0
10
35.525046525064212
20
3.6851191918533384
30
0
10
35.525023215895644
20
3.6851480650454489
30
0
10
35.524999906610084
20
3.6851769383824697
30
0
10
35.226569967499238
20
4.054843704359862
30
0
10
34.887919925753224
20
4.3890739192889647
30
0
10
34.515977814114848
20
4.6818020736207053
30
0
10
34.142415151554474
20
4.9758056438452689
30
0
10
33.738000946084163
20
5.2258509758527563
30
0
10
33.310526057025108
20
5.4280609231880064
30
0
10
32.552269222945974
20
5.7867418151188392
30
0
10
31.733507315493799
20
5.9889675959145929
30
0
10
30.903855587165381
20
6.0270697361372179
30
0
10
30.075865063229287
20
6.0650955847780459
30
0
10
29.251908593388727
20
5.9391295837803266
30
0
10
28.478632991043131
20
5.6599769175302272
30
0
10
28.043892055255412
20
5.5030353419974105
30
0
10
27.627971063360356
20
5.298700672669419
30
0
10
27.238431272788954
20
5.0508593714368191
30
0
10
26.851048259120947
20
4.804390300736614
30
0
10
26.490410644583577
20
4.5151244239349726
30
0
10
26.164959978377173
20
4.1893035536997374
30
0
10
26.164941417319767
20
4.1892849715289051
30
0
10
26.164922856278228
20
4.1892663893739588
30
0
10
26.164904295226133
20
4.189247807208444
30
0
0
ARC
5
126
100
AcDbEntity
8
0
100
AcDbCircle
10
56.381557247154532
20
20.521208599540117
30
0
40
26.803879308284984
210
0
220
0
230
1
100
AcDbArc
50
218.91173558131297
51
231.08826465445929
0
SPLINE
5
127
100
AcDbEntity
8
0
100
AcDbSpline
70
0
71
3
72
29
73
25
74
0
42
0.000000001
43
0.0000000001
44
0.0000000001
40
-0.56604597670877521
40
-0.56604597670877521
40
-0.56604597670877521
40
-0.56604597670877521
40
-0.56603792886901805
40
-0.56603792886901805
40
-0.56603792886901805
40
-0.49165965777742793
40
-0.49165965777742793
40
-0.49165965777742793
40
-0.41698878393751521
40
-0.41698878393751521
40
-0.41698878393751521
40
-0.28357221669439769
40
-0.28357221669439769
40
-0.28357221669439769
40
-0.1498095758539485
40
-0.1498095758539485
40
-0.1498095758539485
40
-0.074880270460234738
40
-0.074880270460234738
40
-0.074880270460234738
40
0
40
0
40
0
40
1.0925497468168902e-05
40
1.0925497468168902e-05
40
1.0925497468168902e-05
40
1.0925497468168902e-05
10
40.049596476553965
20
-9.6954443306589564
30
0
10
40.049614905179283
20
-9.6954259229802027
30
0
10
40.049633333975095
20
-9.6954075151311496
30
0
10
40.049651762941409
20
-9.6953891071117972
30
0
10
40.374697158824389
20
-9.3707131682992397
30
0
10
40.663372332951695
20
-9.0110030430975741
30
0
10
40.90946177670034
20
-8.6246606975555711
30
0
10
41.156879534447299
20
-8.2362329966325749
30
0
10
41.36101830240154
20
-7.8215059742726742
30
0
10
41.517974347950627
20
-7.3882175153119336
30
0
10
41.798537895623213
20
-6.6137016514193467
30
0
10
41.92556040867732
20
-5.7875164079423405
30
0
10
41.887426185325161
20
-4.9566629852413602
30
0
10
41.849237971502987
20
-4.1246332394669558
30
0
10
41.645683149461235
20
-3.3031812081178225
30
0
10
41.285756622619033
20
-2.5442208279703578
30
0
10
41.083857759776251
20
-2.118486056379917
30
0
10
40.834531035934745
20
-1.7157792776274317
30
0
10
40.541666888366457
20
-1.3437563684046649
30
0
10
40.249043502364742
20
-0.97203929661254307
30
0
10
39.915006333531771
20
-0.63362811020915766
30
0
10
39.545524062670893
20
-0.33534751123245221
30
0
10
39.545495725775126
20
-0.3353246350434963
30
0
10
39.545467388935919
20
-0.33530175890020608
30
0
10
39.545439052197452
20
-0.33527888283824553
30
0
0
LINE
5
128
100
AcDbEntity
8
0
100
AcDbLine
10
40.049596476553965
20
-9.6954443306589564
30
0
11
39.764976699000862
21
-9.9797264666490388
31
0
0
SPLINE
5
129
100
AcDbEntity
8
0
100
AcDbSpline
70
0
71
3
72
89
73
85
74
0
42
0.000000001
43
0.0000000001
44
0.0000000001
40
-1.491602800975595e-05
40
-1.491602800975595e-05
40
-1.491602800975595e-05
40
-1.491602800975595e-05
40
0
40
0
40
0
40
0.062628627275777324
40
0.062628627275777324
40
0.062628627275777324
40
0.12499999999999886
40
0.12499999999999886
40
0.12499999999999886
40
0.1562657402988642
40
0.1562657402988642
40
0.1562657402988642
40
0.18749999999999828
40
0.18749999999999828
40
0.18749999999999828
40
0.21868483782504772
40
0.21868483782504772
40
0.21868483782504772
40
0.23432624123662699
40
0.23432624123662699
40
0.23432624123662699
40
0.24999999999999772
40
0.24999999999999772
40
0.24999999999999772
40
0.31262370999118105
40
0.31262370999118105
40
0.31262370999118105
40
0.374999999999998
40
0.374999999999998
40
0.374999999999998
40
0.40617143076129192
40
0.40617143076129192
40
0.40617143076129192
40
0.43740841899611521
40
0.43740841899611521
40
0.43740841899611521
40
0.45304535569856025
40
0.45304535569856025
40
0.45304535569856025
40
0.46869127080342871
40
0.46869127080342871
40
0.46869127080342871
40
0.49999999999999833
40
0.49999999999999833
40
0.49999999999999833
40
0.56262608719144158
40
0.56262608719144158
40
0.56262608719144158
40
0.59386719292712875
40
0.59386719292712875
40
0.59386719292712875
40
0.62499999999999878
40
0.62499999999999878
40
0.62499999999999878
40
0.65615082695418037
40
0.65615082695418037
40
0.65615082695418037
40
0.6874222940749628
40
0.6874222940749628
40
0.6874222940749628
40
0.71873286972606187
40
0.71873286972606187
40
0.71873286972606187
40
0.74999999999999911
40
0.74999999999999911
40
0.74999999999999911
40
0.81258019048320085
40
0.81258019048320085
40
0.81258019048320085
40
0.87499999999999956
40
0.87499999999999956
40
0.87499999999999956
40
0.90611803238508226
40
0.90611803238508226
40
0.90611803238508226
40
0.93733920315126851
40
0.93733920315126851
40
0.93733920315126851
40
0.96864092161167181
40
0.96864092161167181
40
0.96864092161167181
40
1
40
1
40
1
40
1
10
31.343564464965418
20
-10.414789657315008
30
0
10
31.343583501758712
20
-10.41480506397102
30
0
10
31.343602538695453
20
-10.414820470743136
30
0
10
31.343621575775657
20
-10.414835877631351
30
0
10
31.495805554813746
20
-10.537999804459053
30
0
10
31.653340247222349
20
-10.653784317792498
30
0
10
31.815593943388318
20
-10.76185927062757
30
0
10
31.977151452992128
20
-10.869470503179844
30
0
10
32.143447652292323
20
-10.969481346329104
30
0
10
32.313877068683254
20
-11.061589876945215
30
0
10
32.399175195706469
20
-11.107689225935465
30
0
10
32.485647772366192
20
-11.15187607358828
30
0
10
32.572784769729701
20
-11.193906304522566
30
0
10
32.659828817811828
20
-11.235891701690704
30
0
10
32.748469580666033
20
-11.276175352534226
30
0
10
32.83820796888169
20
-11.314460374534093
30
0
10
32.927913961943133
20
-11.35273157581333
30
0
10
33.018687346678007
20
-11.388996967360407
30
0
10
33.110253560207525
20
-11.423133021952587
30
0
10
33.156280019297114
20
-11.440291771447683
30
0
10
33.202322576519023
20
-11.456845785005267
30
0
10
33.24850833215411
20
-11.472849667588321
30
0
10
33.294627537133124
20
-11.488830489622275
30
0
10
33.340938698016963
20
-11.504280762471852
30
0
10
33.387475769291591
20
-11.519204856588656
30
0
10
33.572192894654201
20
-11.578442270727333
30
0
10
33.759439663258874
20
-11.629098123639741
30
0
10
33.948209993019709
20
-11.670971124597509
30
0
10
34.136101840352495
20
-11.712649260739418
30
0
10
34.326323909648956
20
-11.745810584724776
30
0
10
34.517798932174557
20
-11.770186956045459
30
0
10
34.613540036759176
20
-11.782375599165704
30
0
10
34.709616976039491
20
-11.792373034282148
30
0
10
34.805858343969255
20
-11.800158065471024
30
0
10
34.902304001420028
20
-11.807959621781343
30
0
10
34.999116976931994
20
-11.813554416431185
30
0
10
35.096072947435331
20
-11.816913394161308
30
0
10
35.144773637754881
20
-11.818600598501341
30
0
10
35.193322638059236
20
-11.819718885590385
30
0
10
35.241947332074226
20
-11.820277399625407
30
0
10
35.290479634259654
20
-11.820834852427353
30
0
10
35.338940863074143
20
-11.820832038902118
30
0
10
35.387355717781766
20
-11.820271670346411
30
0
10
35.484031638990608
20
-11.81915271322741
30
0
10
35.580418019678376
20
-11.815815333936255
30
0
10
35.676437295719758
20
-11.8102930567853
30
0
10
35.86798094882991
20
-11.799276965198363
30
0
10
36.058976309486226
20
-11.77949346758869
30
0
10
36.247873259497936
20
-11.75121411376702
30
0
10
36.342212041195737
20
-11.737090858804091
30
0
10
36.436415843436272
20
-11.720796303160373
30
0
10
36.530280164703164
20
-11.702346681365066
30
0
10
36.623816687668068
20
-11.683961490384522
30
0
10
36.717284534577466
20
-11.66338347976895
30
0
10
36.810471644173852
20
-11.640616932654632
30
0
10
36.903765831357155
20
-11.617824225410033
30
0
10
36.996466254210375
20
-11.592912963661398
30
0
10
37.088382220118554
20
-11.565955386654005
30
0
10
37.181143392151753
20
-11.538749923341165
30
0
10
37.272614919782725
20
-11.509617768637977
30
0
10
37.36363008030488
20
-11.478323554456857
30
0
10
37.454271298006226
20
-11.44715791497317
30
0
10
37.544026572940602
20
-11.413984428524209
30
0
10
37.632749135239941
20
-11.378884756621904
30
0
10
37.721276391224478
20
-11.343862350156842
30
0
10
37.808999361196236
20
-11.306833452717736
30
0
10
37.895688961133722
20
-11.267907569917606
30
0
10
38.068875963293152
20
-11.19014210608545
30
0
10
38.238612528960857
20
-11.104465293550659
30
0
10
38.403150082373266
20
-11.01191859921871
30
0
10
38.567358507066885
20
-10.919557028430305
30
0
10
38.728900980077782
20
-10.81893707678983
30
0
10
38.885945745224994
20
-10.710854590362676
30
0
10
38.964698975320104
20
-10.656654471594818
30
0
10
39.042068651621385
20
-10.600760370635832
30
0
10
39.118164616365114
20
-10.543111074460699
30
0
10
39.194448188561658
20
-10.485319649361283
30
0
10
39.269266119533967
20
-10.425895379938417
30
0
10
39.342421522822725
20
-10.365041259189105
30
0
10
39.415789936572182
20
-10.304009946274688
30
0
10
39.487698416988678
20
-10.241366139289859
30
0
10
39.558027234238928
20
-10.177237078783639
30
0
10
39.628488677760089
20
-10.112987083524292
30
0
10
39.697513583346634
20
-10.047110122861028
30
0
10
39.764976699000862
20
-9.9797264666490388
30
0
0
CIRCLE
5
130
100
AcDbEntity
8
0
100
AcDbCircle
10
56.381557247154547
20
0.52120859954008836
30
0
40
2.0000000000000018
210
0
220
-0
230
1
0
LWPOLYLINE
5
131
100
AcDbEntity
8
0
100
AcDbPolyline
90
4
70
1
43
0.0
10
107.38155724715469
20
-30.478791400460032
10
107.38155724715469
20
71.521208599540273
10
-107.38155724715469
20
71.521208599540273
10
-107.38155724715469
20
-30.478791400460032
42
0.17248035020493022
0
ENDSEC
0
SECTION
2
OBJECTS
0
DICTIONARY
5
C
100
AcDbDictionary
3
ACAD_GROUP
350
D
3
ACAD_MLINESTYLE
350
17
0
DICTIONARY
5
D
100
AcDbDictionary
0
DICTIONARY
5
1A
330
C
100
AcDbDictionary
0
DICTIONARY
5
17
100
AcDbDictionary
0
ENDSEC
0
EOF
