0
SECTION
2
HEADER
9
$INSUNITS
70
4
9
$ACADVER
1
AC1014
9
$HANDSEED
5
FFFF
0
ENDSEC
0
SECTION
2
TABLES
0
TABLE
2
VPORT
5
8
100
AcDbSymbolTable
0
ENDTAB
0
TABLE
2
LTYPE
5
5
100
AcDbSymbolTable
0
LTYPE
5
14
100
AcDbSymbolTableRecord
100
AcDbLinetypeTableRecord
2
BYBLOCK
70
0
0
LTYPE
5
15
100
AcDbSymbolTableRecord
100
AcDbLinetypeTableRecord
2
BYLAYER
70
0
0
ENDTAB
0
TABLE
2
LAYER
5
2
100
AcDbSymbolTable
70
2
0
LAYER
5
50
100
AcDbSymbolTableRecord
100
AcDbLayerTableRecord
2
0
70
0
6
CONTINUOUS
0
ENDTAB
0
TABLE
2
STYLE
5
3
100
AcDbSymbolTable
70
1
0
STYLE
5
11
100
AcDbSymbolTableRecord
100
AcDbTextStyleTableRecord
2
STANDARD
70
0
0
ENDTAB
0
TABLE
2
VIEW
5
6
100
AcDbSymbolTable
70
0
0
ENDTAB
0
TABLE
2
UCS
5
7
100
AcDbSymbolTable
70
0
0
ENDTAB
0
TABLE
2
APPID
5
9
100
AcDbSymbolTable
70
2
0
APPID
5
12
100
AcDbSymbolTableRecord
100
AcDbRegAppTableRecord
2
ACAD
70
0
0
ENDTAB
0
TABLE
2
DIMSTYLE
5
A
100
AcDbSymbolTable
70
1
0
ENDTAB
0
TABLE
2
BLOCK_RECORD
5
1
100
AcDbSymbolTable
70
1
0
BLOCK_RECORD
5
1F
100
AcDbSymbolTableRecord
100
AcDbBlockTableRecord
2
*MODEL_SPACE
0
BLOCK_RECORD
5
1B
100
AcDbSymbolTableRecord
100
AcDbBlockTableRecord
2
*PAPER_SPACE
0
ENDTAB
0
ENDSEC
0
SECTION
2
BLOCKS
0
BLOCK
5
20
100
AcDbEntity
100
AcDbBlockBegin
2
*MODEL_SPACE
0
ENDBLK
5
21
100
AcDbEntity
100
AcDbBlockEnd
0
BLOCK
5
1C
100
AcDbEntity
100
AcDbBlockBegin
2
*PAPER_SPACE
0
ENDBLK
5
1D
100
AcDbEntity
100
AcDbBlockEnd
0
ENDSEC
0
SECTION
2
ENTITIES
0
LWPOLYLINE
5
100
100
AcDbEntity
8
0
100
AcDbPolyline
90
8
70
1
43
0.0
10
-90.250000469999989
20
14.858212183454418
10
-106.25000047
20
14.858212183454423
42
-0.41421356237309503
10
-111.25000047
20
19.858212183454423
10
-111.25000047
20
37.784612357862983
42
-0.56725998131210753
10
-103.88278490302044
20
42.188734342941245
10
-87.882784903020422
20
33.588734342941237
42
-0.27611246624545527
10
-85.250000469999989
20
29.184612357862978
10
-85.250000469999989
20
19.85821218345442
42
-0.41421356237309503
0
CIRCLE
5
101
100
AcDbEntity
8
0
100
AcDbCircle
10
-78.250000470000003
20
36.358213203454419
30
0
40
1.7500000000000071
210
0
220
-0
230
1
0
CIRCLE
5
102
100
AcDbEntity
8
0
100
AcDbCircle
10
-118.25000047
20
57.858213203454412
30
0
40
1.7500000000000071
210
0
220
-0
230
1
0
CIRCLE
5
103
100
AcDbEntity
8
0
100
AcDbCircle
10
-83.499897919082002
20
-2.6417326907901306
30
0
40
7.2500000000000053
210
0
220
-0
230
1
0
CIRCLE
5
104
100
AcDbEntity
8
0
100
AcDbCircle
10
-160.89991470375
20
-2.6417098026061314
30
0
40
7.2499999999999964
210
0
220
-0
230
1
0
LWPOLYLINE
5
105
100
AcDbEntity
8
0
100
AcDbPolyline
90
2
70
1
43
0.0
10
-104.4999017337795
20
2.0818737744346212
42
2.6992095782244299
10
-104.4999017337795
20
-7.365339156014878
42
2.6992095782244299
0
CIRCLE
5
106
100
AcDbEntity
8
0
100
AcDbCircle
10
-66.499913177870994
20
-2.6417212466981299
30
0
40
7.2500000000000053
210
0
220
-0
230
1
0
CIRCLE
5
107
100
AcDbEntity
8
0
100
AcDbCircle
10
-144.99992080726
20
-2.6417212466981299
30
0
40
7.2499999999999964
210
0
220
-0
230
1
0
CIRCLE
5
108
100
AcDbEntity
8
0
100
AcDbCircle
10
-127.999897919082
20
-2.6417326907901306
30
0
40
7.2499999999999964
210
0
220
-0
230
1
0
CIRCLE
5
109
100
AcDbEntity
8
0
100
AcDbCircle
10
-49.499901733778998
20
-2.6417326907901306
30
0
40
7.2500000000000053
210
0
220
-0
230
1
0
CIRCLE
5
110
100
AcDbEntity
8
0
100
AcDbCircle
10
-1.3463991638749216e-16
20
23
30
0
40
4.0000000000000018
210
0
220
-0
230
1
0
CIRCLE
5
111
100
AcDbEntity
8
0
100
AcDbCircle
10
-180.62299999999999
20
23
30
0
40
3.9999999999999858
210
0
220
-0
230
1
0
CIRCLE
5
112
100
AcDbEntity
8
0
100
AcDbCircle
10
-166.00000086
20
-17.641787176545513
30
0
40
1.699999140000017
210
0
220
-0
230
1
0
CIRCLE
5
113
100
AcDbEntity
8
0
100
AcDbCircle
10
-30.500000079999996
20
-17.641787176545513
30
0
40
1.6999991399999992
210
0
220
-0
230
1
0
CIRCLE
5
114
100
AcDbEntity
8
0
100
AcDbCircle
10
-30.500000079999996
20
25.85821218345442
30
0
40
1.6999991399999992
210
0
220
-0
230
1
0
CIRCLE
5
115
100
AcDbEntity
8
0
100
AcDbCircle
10
-166.00000086
20
25.85821218345442
30
0
40
1.699999140000017
210
0
220
-0
230
1
0
LWPOLYLINE
5
116
100
AcDbEntity
8
0
100
AcDbPolyline
90
37
70
1
43
0.0
10
-73.250000470000003
20
24.85821218345442
10
-73.250000470000003
20
36.358213203454419
42
0.27611246624545532
10
-75.882784903020436
20
40.762335188532674
10
-115.88278490302044
20
62.262335188532688
42
0.5672599813121072
10
-123.25000047000002
20
57.858213203454412
10
-123.25000047
20
24.85821218345442
42
-0.41421356237309503
10
-133.25000047
20
14.858212183454418
10
-142.25000047
20
14.85821218345442
10
-158.89183321647837
20
31.500044929932773
10
-180.62299999999999
20
31.500044929932777
42
0.41421355930697257
10
-189.1230449299328
20
23.000000088981842
10
-189.1230449299328
20
15
10
-172.12295507006723
20
15
10
-169.50000000000003
20
12.377044929932804
10
-169.50000000000003
20
-12.55598336813903
10
-170.62299999999999
20
-13.678983368138997
10
-170.62299999999999
20
-23.283619923023863
10
-158.89183321647837
20
-23.283619923023863
10
-156.03679703440361
20
-20.428583740949055
42
-0.19891236737965776
10
-134.82359359880721
20
-11.641787176545497
10
-61.676407341192814
20
-11.641787176545503
42
-0.19891236737965776
10
-40.463203905596416
20
-20.428583740949065
10
-37.608167723521611
20
-23.283619923023863
10
-10.595751508893297
20
-23.283619923023863
10
-10.595751508893297
20
-13.283619923023867
10
-12.595751508893297
20
-13.283619923023862
10
-16.95391876241494
20
-17.641787176545513
10
-23.641832746478357
20
-17.641787176545513
10
-28.000000000000007
20
-13.283619923023862
10
-28.000000000000007
20
4.9999999999999813
42
-0.41421356237309465
10
-18.000000000000004
20
15
10
8.5000449299327769
20
15
10
8.5000449299327787
20
23.000000088981842
42
0.41421355930697257
10
-9.6892633195095125e-16
20
31.500044929932777
10
-37.608167723521611
20
31.500044929932773
10
-54.250000470000003
20
14.858212183454416
10
-63.250000469999996
20
14.858212183454418
42
-0.41421356237309503
0
ENDSEC
0
SECTION
2
OBJECTS
0
DICTIONARY
5
C
100
AcDbDictionary
3
ACAD_GROUP
350
D
3
ACAD_MLINESTYLE
350
17
0
DICTIONARY
5
D
100
AcDbDictionary
0
DICTIONARY
5
1A
330
C
100
AcDbDictionary
0
DICTIONARY
5
17
100
AcDbDictionary
0
ENDSEC
0
EOF
